<svg xmlns="http://www.w3.org/2000/svg" width="110" height="35"><g fill="none" fill-rule="evenodd"><path fill="#FF7800" d="M32.716 23.336c-1.128-1.062-1.875-1.21-2.79-1.88-2.798-2.049-3.473-6.343-1.325-9.143.614-.801 1.378-1.365 2.238-1.937.893-.593 1.708-1.455 2.13-2.35.848-1.797.646-4.07-.669-5.766C31.048.646 29.08-.196 26.93.2c-1.014.187-1.868.607-2.728 1.375-.885.79-1.11 1.6-2.122 2.592-1.596 1.564-3.51 2.33-5.776 2.176-1.11-.076-2.048-.34-3.164-.97-1.2-.677-1.67-1.488-2.594-1.7-.961-.219-2.03.05-2.67.785-.874 1.004-.759 1.939-.379 3.138.359 1.135.666 2.235.726 3.434a10.51 10.51 0 01-.414 3.498c-.613 2.068-2.121 4.01-3.566 5.288-1.191 1.055-2.033 1.223-2.797 1.96-.742.716-1.225 1.7-1.225 2.814a3.938 3.938 0 003.208 3.873c1.429.265 2.792-.386 3.217-.52 2.967-.935 6.692-.82 9.384-.035 2.226.649 4.152 1.799 5.948 3.254.864.7 1.52 1.642 2.428 2.29 2.337 1.667 6.371 1.991 8.951-1.335 1.747-2.251 2.167-6.138-.641-8.781"/><path fill="#FFF" d="M21.62 11.19c-.87 0-1.205.687-1.205 1.186v.923c-.898-1.208-2.112-2.012-3.77-2.012-1.353 0-2.507.544-3.462 1.634-.955 1.09-1.432 2.405-1.432 3.946 0 1.534.477 2.847 1.432 3.937.955 1.095 2.11 1.642 3.462 1.642 1.777 0 3.007-.967 3.77-2.02v.992c0 .445.358 1.152 1.195 1.152.828 0 1.178-.721 1.178-1.187v-9.007c0-.764-.655-1.186-1.167-1.186m-4.325 9.076c-1.813 0-3.12-1.654-3.12-3.436 0-1.881 1.346-3.427 3.12-3.427 1.916 0 3.12 1.716 3.12 3.427 0 1.81-1.285 3.436-3.12 3.436m50.66-11.174c-1.108-.436-1.93.397-2.132.933l-4 10.492-4-10.492c-.202-.536-1.024-1.369-2.131-.933-1.195.47-1.138 1.594-.937 2.097 0 0 3.332 8.748 4.412 11.575.62 1.626 1.839 1.97 2.656 1.972.817-.001 2.035-.346 2.656-1.972 1.08-2.827 4.412-11.575 4.412-11.575.2-.503.258-1.627-.937-2.097M50.997 8.97c-1.206 0-1.67.952-1.67 1.644v1.278c-1.245-1.674-2.926-2.788-5.223-2.788-1.875 0-3.474.755-4.797 2.265-1.322 1.51-1.984 3.332-1.984 5.466 0 2.127.662 3.945 1.984 5.454 1.323 1.519 2.922 2.277 4.797 2.277 2.461 0 4.166-1.34 5.223-2.8v1.376c0 .616.495 1.595 1.656 1.595 1.147 0 1.631-1 1.631-1.644v-12.48c0-1.058-.906-1.643-1.617-1.643m-6.04 12.625c-2.513 0-4.323-2.292-4.323-4.76 0-2.607 1.863-4.748 4.322-4.748 2.654 0 4.322 2.377 4.322 4.748 0 2.507-1.78 4.76-4.322 4.76M83.323 8.97c-1.206 0-1.67.952-1.67 1.644v1.278c-1.245-1.674-2.927-2.788-5.223-2.788-1.875 0-3.474.755-4.797 2.265-1.323 1.51-1.984 3.332-1.984 5.466 0 2.127.661 3.945 1.984 5.454 1.323 1.519 2.922 2.277 4.797 2.277 2.461 0 4.166-1.34 5.223-2.8v1.376c0 .616.495 1.595 1.655 1.595 1.148 0 1.632-1 1.632-1.644v-12.48c0-1.058-.907-1.643-1.617-1.643m-6.04 12.625c-2.513 0-4.323-2.292-4.323-4.76 0-2.607 1.863-4.748 4.322-4.748 2.654 0 4.322 2.377 4.322 4.748 0 2.507-1.78 4.76-4.322 4.76m10.428 1.326c-.375-.203-.663-.635-.663-1.211 0-.778.605-1.412 1.413-1.412.288 0 .547.086.749.201 1.47.98 2.997 1.47 4.38 1.47 1.5 0 2.364-.634 2.364-1.643v-.057c0-1.182-1.614-1.528-3.4-2.075-2.249-.635-4.756-1.615-4.756-4.526v-.058c0-2.882 2.392-4.64 5.418-4.64 1.614 0 3.314.461 4.784 1.24.49.259.836.72.836 1.325 0 .807-.634 1.413-1.441 1.413-.288 0-.461-.058-.692-.173-1.24-.634-2.507-1.038-3.573-1.038-1.355 0-2.133.634-2.133 1.499v.057c0 1.125 1.643 1.528 3.43 2.104 2.218.692 4.726 1.759 4.726 4.497v.058c0 3.2-2.479 4.784-5.649 4.784a10.4 10.4 0 01-5.793-1.815zm14.602-2.62v-7.91h-.665c-.834 0-1.495-.66-1.495-1.493 0-.833.661-1.494 1.495-1.494h.665V7.056c0-.948.687-1.723 1.665-1.723.95 0 1.629.775 1.629 1.723v2.348h2.6c.834 0 1.525.66 1.525 1.494 0 .833-.69 1.494-1.525 1.494h-2.6v7.363c0 1.35.788 1.896 1.967 1.896.403 0 .748-.086.863-.086.777 0 1.467.632 1.467 1.436 0 .632-.431 1.15-.92 1.35a6.946 6.946 0 01-2.388.402c-2.56 0-4.283-1.12-4.283-4.452z"/></g></svg>