<svg xmlns="http://www.w3.org/2000/svg" width="113" height="36"><g fill="none" fill-rule="evenodd"><path fill="#FF7800" d="M33.779 24.117c-1.154-1.103-1.92-1.255-2.856-1.95-2.867-2.128-3.559-6.585-1.359-9.493.63-.831 1.412-1.417 2.293-2.01.915-.616 1.75-1.51 2.181-2.438.868-1.867.662-4.226-.685-5.987C32.071.565 30.055-.31 27.853.1c-1.039.196-1.913.63-2.793 1.428-.905.82-1.137 1.662-2.173 2.691-1.635 1.623-3.595 2.42-5.916 2.26-1.137-.079-2.098-.353-3.24-1.006-1.23-.705-1.71-1.548-2.657-1.767-.985-.226-2.08.05-2.734.816-.896 1.041-.777 2.013-.389 3.257.368 1.177.684 2.32.744 3.565a11.073 11.073 0 01-.424 3.63c-.629 2.148-2.172 4.163-3.653 5.49-1.219 1.095-2.08 1.27-2.864 2.034C.994 23.241.5 24.263.5 25.42c0 2 1.415 3.667 3.285 4.02 1.464.276 2.86-.401 3.296-.54 3.037-.97 6.852-.852 9.61-.037 2.28.674 4.25 1.869 6.091 3.38.885.726 1.557 1.703 2.487 2.375 2.393 1.732 6.525 2.068 9.167-1.382 1.79-2.338 2.219-6.373-.657-9.118"/><path fill="#FFF" d="M17.993 20.93c-1.856 0-3.194-1.717-3.194-3.566 0-1.954 1.377-3.558 3.194-3.558 1.962 0 3.197 1.782 3.197 3.558 0 1.878-1.316 3.567-3.197 3.567m4.429-9.423c-.89 0-1.234.716-1.234 1.232v.958c-.922-1.255-2.164-2.088-3.86-2.088-1.387 0-2.568.563-3.548 1.695-.977 1.133-1.467 2.497-1.467 4.096 0 1.593.49 2.957 1.467 4.088.98 1.136 2.161 1.705 3.547 1.705 1.82 0 3.079-1.007 3.861-2.1v1.033c0 .46.365 1.195 1.224 1.195.847 0 1.206-.749 1.206-1.231v-9.35c0-.795-.67-1.233-1.196-1.233"/><path fill="#2D364C" d="M106.421 5.43c.972 0 1.668.802 1.668 1.787v2.437h2.663c.854 0 1.56.686 1.56 1.55 0 .866-.706 1.551-1.56 1.551h-2.663V20.4c0 1.403.806 1.97 2.014 1.97.413 0 .766-.09.884-.09.796 0 1.502.655 1.502 1.491 0 .656-.442 1.193-.943 1.402-.764.268-1.5.417-2.444.417-2.622 0-4.385-1.163-4.385-4.622v-8.212h-.682a1.53 1.53 0 01-1.533-1.55c0-.865.678-1.551 1.533-1.551h.682V7.217c0-.985.702-1.788 1.704-1.788zm-47.3 4.793l.033.078 4.095 10.89 4.096-10.89c.209-.557 1.049-1.422 2.183-.971 1.225.49 1.166 1.656.96 2.178 0 0-3.412 9.08-4.518 12.016-.636 1.688-1.884 2.046-2.721 2.047-.836-.001-2.084-.359-2.718-2.047-1.107-2.935-4.52-12.016-4.52-12.016-.206-.522-.265-1.688.96-2.178 1.083-.43 1.898.338 2.15.893zm-6.959-1.02c.689 0 1.558.546 1.647 1.539l.008.17v12.952c0 .67-.494 1.708-1.67 1.708-1.128 0-1.644-.918-1.692-1.559l-.004-.098v-1.426c-1.083 1.513-2.829 2.905-5.349 2.905-1.92 0-3.557-.786-4.912-2.364-1.356-1.566-2.033-3.453-2.033-5.66 0-2.216.677-4.11 2.033-5.676 1.355-1.565 2.992-2.35 4.912-2.35 2.254 0 3.93 1.062 5.187 2.678l.162.214v-1.325c0-.718.475-1.707 1.711-1.707zm33.106 0c.688 0 1.558.546 1.648 1.539l.008.17v12.952c0 .67-.496 1.708-1.672 1.708-1.128 0-1.643-.918-1.692-1.559l-.004-.098v-1.426c-1.082 1.513-2.828 2.905-5.348 2.905-1.92 0-3.557-.786-4.912-2.364-1.356-1.566-2.032-3.453-2.032-5.66 0-2.216.676-4.11 2.032-5.676 1.355-1.565 2.992-2.35 4.912-2.35 2.254 0 3.929 1.062 5.187 2.678l.161.214v-1.325c0-.718.476-1.707 1.712-1.707zm10.131 0c1.651 0 3.393.48 4.9 1.289.5.268.857.746.857 1.377 0 .837-.652 1.464-1.48 1.464-.294 0-.47-.06-.707-.179-1.27-.658-2.568-1.077-3.659-1.077-1.389 0-2.184.658-2.184 1.554v.061c0 1.166 1.683 1.586 3.512 2.184 2.272.72 4.84 1.825 4.84 4.669v.06c0 3.321-2.538 4.965-5.785 4.965-1.977 0-4.132-.627-5.933-1.884-.383-.21-.679-.659-.679-1.256 0-.807.62-1.466 1.446-1.466.296 0 .563.089.768.208 1.505 1.018 3.07 1.528 4.486 1.528 1.536 0 2.422-.66 2.422-1.707v-.06c0-1.226-1.652-1.585-3.483-2.155-2.302-.657-4.87-1.675-4.87-4.696v-.06c0-2.992 2.45-4.818 5.549-4.818zM45.975 12.44c-2.518 0-4.427 2.223-4.427 4.93 0 2.561 1.853 4.94 4.427 4.94 2.603 0 4.427-2.338 4.427-4.94 0-2.463-1.709-4.93-4.427-4.93zm33.106 0c-2.519 0-4.427 2.223-4.427 4.93 0 2.561 1.854 4.94 4.427 4.94 2.603 0 4.427-2.338 4.427-4.94 0-2.463-1.708-4.93-4.427-4.93z"/></g></svg>