<svg xmlns="http://www.w3.org/2000/svg" width="21" height="28" viewBox="0 0 21 24"><path fill="#2D364C" fill-rule="evenodd" d="M10.5 1.5c-1.002 0-1.843.354-2.57 1.08-.726.727-1.08 1.568-1.08 2.57 0 1.003.353 1.844 1.08 2.569.728.727 1.569 1.081 2.57 1.081 1.002 0 1.843-.354 2.57-1.08.726-.728 1.08-1.569 1.08-2.57s-.354-1.842-1.081-2.57c-.727-.726-1.568-1.08-2.569-1.08m0 8.8c-1.399 0-2.621-.511-3.63-1.519S5.35 6.552 5.35 5.15c0-1.4.511-2.622 1.52-3.63C7.878.511 9.1 0 10.5 0c1.399 0 2.62.511 3.63 1.519 1.009 1.011 1.52 2.232 1.52 3.631 0 1.399-.511 2.62-1.519 3.63-1.009 1.009-2.23 1.52-3.631 1.52M1.501 20.936c.015.415.137.752.371 1.028.218.215.495.336.828.336h15.6c.334 0 .61-.121.869-.381.196-.234.315-.568.33-.982a26.181 26.181 0 00-.166-.62c-.429-1.34-1.189-2.564-2.263-3.637C15.236 14.878 13.086 14 10.5 14c-2.586 0-4.737.878-6.574 2.685-1.071 1.071-1.834 2.299-2.261 3.643-.051.178-.107.386-.164.608M18.3 23.8H2.7c-.737 0-1.387-.276-1.93-.82-.525-.614-.77-1.316-.77-2.13 0-.06.007-.121.022-.18.068-.276.138-.535.207-.777.507-1.595 1.394-3.025 2.64-4.273 2.108-2.072 4.673-3.12 7.631-3.12 2.957 0 5.523 1.048 7.626 3.115 1.252 1.252 2.139 2.683 2.639 4.258.002.006.005.013.006.02.069.241.137.499.207.774a.81.81 0 01.022.183c0 .813-.245 1.513-.727 2.084-.586.59-1.235.866-1.973.866"/></svg>