<svg xmlns="http://www.w3.org/2000/svg" width="24" height="24"><path fill="#AAABB6" fill-rule="evenodd" d="M6 18c0 .55.45 1 1 1h1v3.5c0 .83.67 1.5 1.5 1.5s1.5-.67 1.5-1.5V19h2v3.5c0 .83.67 1.5 1.5 1.5s1.5-.67 1.5-1.5V19h1c.55 0 1-.45 1-1V8H6v10zM3.5 8A1.5 1.5 0 015 9.5v7a1.5 1.5 0 01-3 0v-7A1.5 1.5 0 013.5 8zm17 0A1.5 1.5 0 0122 9.5v7a1.5 1.5 0 01-3 0v-7A1.5 1.5 0 0120.5 8zM16.83.86c.2-.2.2-.51 0-.71-.2-.2-.51-.2-.71 0l-1.48 1.48A5.84 5.84 0 0012 1c-.96 0-1.86.23-2.66.63L7.85.15c-.2-.2-.51-.2-.71 0-.2.2-.2.51 0 .71l1.31 1.31A5.983 5.983 0 006 7h12c0-1.99-.97-3.75-2.47-4.84l1.3-1.3zM10 5H9V4h1v1zm5 0h-1V4h1v1z"/></svg>