<svg xmlns="http://www.w3.org/2000/svg" width="24" height="24"><path fill="#AAABB6" fill-rule="evenodd" d="M17 0a7 7 0 017 7v10a7 7 0 01-7 7H7a7 7 0 01-7-7V7a7 7 0 017-7h10zm0 8c-1.788 0-2.788 1.041-2.788 2.256 0 1.641 1.455 1.989 2.697 2.288.94.221 1.773.474 1.773 1.231 0 .647-.546 1.089-1.576 1.089-.985 0-1.954-.52-2.454-1.089L14 14.817c.742.789 1.818 1.183 3.045 1.183C18.97 16 20 14.974 20 13.665c0-1.752-1.515-2.115-2.788-2.415-.909-.22-1.697-.441-1.697-1.104 0-.615.576-.994 1.5-.994s1.743.394 2.167.93l.606-.993C19.167 8.473 18.258 8 17 8zM9.5 8C7.447 8 6 9.693 6 12s1.447 4 3.5 4 3.5-1.693 3.5-4-1.447-4-3.5-4zM5 11H4v4.5a.5.5 0 101 0V11zm4.5-1.8c1.338 0 2.3 1.107 2.3 2.8 0 1.693-.962 2.8-2.3 2.8-1.338 0-2.3-1.107-2.3-2.8 0-1.693.962-2.8 2.3-2.8zM5 9H4v1h1V9z"/></svg>