<svg xmlns="http://www.w3.org/2000/svg" width="24" height="24"><path fill="#2D364C" fill-rule="evenodd" d="M10.147 4.3c-1.567 0-2.905.574-4.088 1.759-1.151 1.15-1.727 2.492-1.76 4.1.034 1.62.609 2.98 1.76 4.131 1.183 1.181 2.52 1.758 4.088 1.758 1.632-.033 2.992-.608 4.142-1.758 1.18-1.18 1.738-2.513 1.704-4.077.034-1.66-.524-3.03-1.704-4.208C13.142 4.858 11.788 4.3 10.147 4.3m9.744 16.51l-5.161-5.161c-1.288 1.092-2.822 1.664-4.57 1.698-1.916 0-3.6-.72-5.02-2.14C3.76 13.83 3.04 12.13 3 10.16c.04-1.958.76-3.639 2.14-5.02C6.56 3.72 8.244 3 10.147 3c1.974 0 3.677.702 5.061 2.085 1.423 1.424 2.125 3.15 2.086 5.128.034 1.677-.518 3.2-1.644 4.518l5.16 5.16a.65.65 0 11-.92.919z"/></svg>