<svg xmlns="http://www.w3.org/2000/svg" width="29" height="28"><path fill="#FF7800" fill-rule="evenodd" d="M20.002 2c.386 0 .708.29.76.662l.006.104V3.8h1.736c1.048 0 1.91.814 1.986 1.843l.006.148v1.75h1.047c.42 0 .766.344.766.765a.77.77 0 01-.663.76l-.103.006h-1.047v2.196h1.047a.77.77 0 01.766.766.77.77 0 01-.663.759l-.103.007h-1.047v2.209h1.047c.42 0 .766.344.766.765a.77.77 0 01-.663.76l-.103.006h-1.047v2.196h1.047a.77.77 0 01.766.766.77.77 0 01-.663.759l-.103.007h-1.047v1.736c0 1.048-.814 1.91-1.843 1.986l-.149.006h-1.736v1.047a.768.768 0 01-.766.766.769.769 0 01-.759-.663l-.007-.103v-1.047h-2.195v1.047a.768.768 0 01-.766.766.769.769 0 01-.76-.663l-.006-.103v-1.047H13.3v1.047a.768.768 0 01-.766.766.769.769 0 01-.759-.663l-.007-.103v-1.047H9.572v1.047a.768.768 0 01-.765.766.769.769 0 01-.76-.663l-.006-.103v-1.047H6.29a1.994 1.994 0 01-1.986-1.843l-.005-.149v-1.736H3.266a.768.768 0 01-.766-.766.77.77 0 01.662-.759l.104-.007H4.3V16.54H3.266a.768.768 0 01-.766-.766c0-.386.29-.708.662-.758l.104-.007H4.3V12.8H3.266a.768.768 0 01-.766-.766.77.77 0 01.662-.759l.104-.007H4.3V9.072H3.266a.768.768 0 01-.766-.766.77.77 0 01.662-.759l.104-.007H4.3V5.791c0-1.047.814-1.91 1.843-1.986l.148-.005h1.75V2.766c0-.421.344-.766.766-.766.386 0 .707.29.758.662l.007.104V3.8h2.196V2.766c0-.421.345-.766.766-.766a.77.77 0 01.759.662l.007.104V3.8h2.209V2.766c0-.421.344-.766.766-.766a.77.77 0 01.759.662l.007.104V3.8h2.195V2.766c0-.421.345-.766.766-.766zm2.502 3.332H6.291a.457.457 0 00-.452.376l-.007.083v16.213c0 .227.161.414.376.452l.083.008h16.213a.457.457 0 00.452-.377l.008-.083V5.791a.458.458 0 00-.46-.46zm-14.08 8.502l3.574 1.953-1.187.817c.204.281.447.536.715.779a4.757 4.757 0 005.77.306 4.62 4.62 0 001.816-2.521l.06-.236.039-.14 1.34.727-.025.102a6.146 6.146 0 01-2.4 3.307 6.104 6.104 0 01-3.511 1.097 6.174 6.174 0 01-4.29-1.723 6.049 6.049 0 01-.804-.957 6.058 6.058 0 01-1.068-2.988l-.017-.293-.012-.23zm2.68-5.132c2.413-1.66 5.694-1.404 7.8.626.32.319.588.625.805.957a6.051 6.051 0 011.085 3.255l.013.23-3.575-1.953L18.419 11a5.12 5.12 0 00-.715-.779 4.757 4.757 0 00-5.77-.306 4.65 4.65 0 00-1.89 2.732l-.038.166-1.327-.728.025-.102a6.197 6.197 0 012.4-3.28z"/></svg>