<svg xmlns="http://www.w3.org/2000/svg" width="32" height="32"><path fill="none" stroke="#FF7800" stroke-linecap="round" stroke-linejoin="round" stroke-width="1.2" d="M14.916 14.216l-2.576 2.46c-.327.326-.505.703-.532 1.133.027.416.191.774.491 1.073.34.3.736.462 1.186.488a1.73 1.73 0 001.125-.488l.163-.156m2.475-4.041l-2.577-2.46a1.507 1.507 0 00-1.125-.488c-.45 0-.831.15-1.145.45-.327.324-.504.695-.531 1.112.027.43.204.8.531 1.113l.164.156m1.881 1.894l2.577 2.42c.3.326.675.495 1.124.508.45-.013.832-.17 1.145-.469.328-.325.505-.696.532-1.112a1.567 1.567 0 00-.532-1.094l-.163-.156m-2.393.332l2.577-2.48c.341-.286.511-.644.511-1.073 0-.43-.156-.794-.47-1.093a1.845 1.845 0 00-1.166-.508c-.45.026-.838.195-1.165.508l-.164.156M27 13.6c0 1.766-.261 3.735-.646 4.862-1.205 3.572-4.405 6.696-9.6 9.372A1.71 1.71 0 0116 28c-.272 0-.524-.055-.753-.166-5.195-2.676-8.513-5.753-9.58-9.372a17.139 17.139 0 01-.666-4.862c.014-1.78 0-4.3 0-4.32 0-1.49.954-2.618 2.346-2.963.614-.152 2.982-.814 7.103-1.986C15.15 4.111 15.667 4 16 4c.334 0 .879.11 1.636.331 3.77 1.076 6.123 1.738 7.06 1.986C26.104 6.69 27 7.77 27 9.28v4.32z"/></svg>