<svg xmlns="http://www.w3.org/2000/svg" width="110" height="35"><g fill="none" fill-rule="evenodd"><path fill="#2D364C" d="M65.94 10.126c.215-.545 1.072-1.362 2.216-.93 1.238.453 1.19 1.565.928 2.065 0 0-3.453 8.625-4.573 11.417-.643 1.611-1.905 1.952-2.739 1.952-.833 0-2.096-.34-2.739-1.952-1.12-2.792-4.573-11.417-4.573-11.417-.19-.5-.262-1.612.977-2.066 1.143-.431 2 .409 2.215.93l4.144 10.351zM51.422 9.074c.725 0 1.66.566 1.637 1.567v11.795c0 .61-.49 1.545-1.66 1.545s-1.684-.914-1.684-1.501v-1.306c-1.076 1.393-2.806 2.655-5.309 2.655-1.894 0-3.531-.718-4.864-2.154-1.333-1.437-2.012-3.156-2.012-5.158 0-2.024.679-3.743 2.012-5.18 1.333-1.414 2.97-2.132 4.864-2.132 2.339 0 4.046 1.044 5.309 2.633v-1.219c0-.653.491-1.545 1.707-1.545zm32.354 0c.725 0 1.637.566 1.637 1.567v11.795c0 .61-.491 1.545-1.66 1.545-1.17 0-1.685-.914-1.685-1.501v-1.306c-1.076 1.393-2.806 2.655-5.309 2.655-1.894 0-3.531-.718-4.864-2.154-1.333-1.437-2.012-3.156-2.012-5.158 0-2.024.679-3.743 2.012-5.18 1.333-1.414 2.97-2.132 4.864-2.132 2.34 0 4.046 1.044 5.31 2.633v-1.219c0-.653.49-1.545 1.707-1.545zm9.195 0c1.643 0 3.379.435 4.88 1.175.493.24.845.675.845 1.262 0 .762-.657 1.328-1.478 1.328-.305 0-.47-.065-.704-.174-1.267-.61-2.557-.98-3.637-.98-1.384 0-2.182.61-2.182 1.415v.065c0 1.067 1.666 1.437 3.496 1.98C96.443 15.799 99 16.8 99 19.39v.065c0 3.025-2.534 4.527-5.748 4.527a10.855 10.855 0 01-5.866-1.698 1.285 1.285 0 01-.68-1.153c0-.74.61-1.327 1.431-1.327.305 0 .563.087.774.195 1.502.936 3.05 1.393 4.458 1.393 1.525 0 2.417-.61 2.417-1.545v-.065c0-1.11-1.643-1.436-3.473-1.959-2.299-.609-4.856-1.523-4.856-4.287v-.065c0-2.72 2.44-4.396 5.513-4.396zm11.124-3.889c.939 0 1.625.758 1.625 1.672v2.275h2.587c.824 0 1.51.646 1.51 1.449s-.686 1.45-1.51 1.45h-2.587v7.134c0 1.316.779 1.828 1.946 1.828.412 0 .756-.089.87-.089.778 0 1.465.602 1.465 1.383 0 .602-.435 1.114-.916 1.315a7.284 7.284 0 01-2.38.38c-2.541.021-4.258-1.071-4.258-4.282v-7.67h-.664c-.824 0-1.488-.646-1.488-1.45 0-.802.664-1.448 1.488-1.448h.664V6.857c0-.914.687-1.672 1.648-1.672zm-58.8 6.849c-2.503 0-4.397 2.024-4.397 4.483 0 2.328 1.848 4.505 4.397 4.505 2.572 0 4.397-2.133 4.397-4.505 0-2.242-1.708-4.483-4.397-4.483zm32.353 0c-2.502 0-4.397 2.024-4.397 4.483 0 2.328 1.848 4.505 4.397 4.505 2.573 0 4.374-2.133 4.397-4.505 0-2.242-1.707-4.483-4.397-4.483z"/><path fill="#FF7800" d="M30.067 21.646c-2.842-2.077-3.517-6.44-1.351-9.265.629-.817 1.397-1.377 2.259-1.96.908-.607 1.723-1.47 2.166-2.38.862-1.821.652-4.131-.675-5.858C31.208.549 29.205-.315 27.039.105c-1.025.187-1.886.607-2.771 1.4-.885.794-1.118 1.634-2.143 2.638-1.607 1.587-3.54 2.357-5.846 2.217-1.118-.07-2.072-.35-3.19-.98-1.211-.677-1.7-1.517-2.632-1.727-.978-.234-2.05.047-2.702.793-.885 1.027-.768 1.96-.372 3.174.372 1.144.675 2.264.745 3.478.07 1.19-.07 2.403-.42 3.547-.628 2.1-2.142 4.06-3.609 5.368-1.211 1.073-2.05 1.237-2.841 1.983A3.811 3.811 0 000 24.82c0 1.96 1.397 3.594 3.237 3.921 1.444.28 2.818-.397 3.26-.537 3.005-.957 6.778-.84 9.503-.046 2.259.653 4.192 1.82 6.009 3.29.885.7 1.537 1.657 2.468 2.31 2.376 1.681 6.451 2.031 9.06-1.353 1.77-2.24 2.19-6.184-.652-8.845-1.141-1.073-1.887-1.237-2.818-1.914z"/><path fill="#FFF" d="M21.476 11.019c-.873 0-1.194.708-1.194 1.228v.944c-.896-1.251-2.113-2.054-3.766-2.054-1.355 0-2.504.566-3.445 1.676-.942 1.11-1.424 2.48-1.424 4.039 0 1.582.482 2.928 1.424 4.038.964 1.134 2.113 1.677 3.445 1.677 1.768 0 3.008-.992 3.766-2.078v1.015c0 .45.367 1.181 1.194 1.181s1.171-.732 1.171-1.228v-9.234c0-.78-.666-1.204-1.171-1.204m-4.317 9.305c-1.815 0-3.124-1.7-3.124-3.52 0-1.936 1.332-3.518 3.124-3.518 1.906 0 3.123 1.771 3.123 3.519 0 1.842-1.286 3.519-3.123 3.519"/></g></svg>