<svg xmlns="http://www.w3.org/2000/svg" width="29" height="28"><path fill="#FF7800" fill-rule="evenodd" d="M8.595 6.25c.781 0 1.45.278 2.009.837.545.551.817 1.217.817 1.998 0 .781-.272 1.447-.817 1.998a2.759 2.759 0 01-2.009.828 2.714 2.714 0 01-1.988-.828 2.702 2.702 0 01-.837-1.998c0-.78.278-1.447.837-1.998a2.695 2.695 0 011.988-.837zm1.716-1.433c-1.661 0-3.074.585-4.239 1.755-1.17 1.165-1.756 2.578-1.756 4.239 0 1.655.586 3.068 1.756 4.239 1.171 1.17 2.584 1.756 4.239 1.756a6.09 6.09 0 002.311-.435.824.824 0 01.525-.05.882.882 0 01.464.252l1.514 1.514h2.17a.88.88 0 01.645.273.865.865 0 01.263.635v1.665h1.655c.248 0 .464.091.646.273a.865.865 0 01.262.636v1.574h1.988v-2.25l-6.307-6.318v.01c-.545-.53-.703-1.114-.475-1.746a.028.028 0 00.01-.02 6.116 6.116 0 00.323-2.008c0-1.655-.585-3.068-1.755-4.239-1.171-1.17-2.584-1.755-4.239-1.755zM4.781 16.33C3.26 14.803 2.5 12.965 2.5 10.811s.763-3.992 2.29-5.52C6.32 3.763 8.158 3 10.312 3s3.992.763 5.52 2.29c1.528 1.52 2.291 3.361 2.291 5.521 0 .874-.127 1.706-.383 2.493l6.57 6.58a.865.865 0 01.262.635v2.735c-.026.47-.196.864-.505 1.18-.262.277-.58.449-.949.515a1.06 1.06 0 01-.171.01h-2.402l-.182-.02a1.763 1.763 0 01-.888-.484 1.737 1.737 0 01-.524-1.221v-.757h-1.656a.865.865 0 01-.635-.262.884.884 0 01-.273-.646v-1.666h-1.655a.865.865 0 01-.636-.262l-1.362-1.382a7.864 7.864 0 01-2.422.363c-2.158 0-4.002-.763-5.53-2.29zm3.814-8.265a.947.947 0 00-.706.303.96.96 0 00-.303.716.96.96 0 00.293.707c.202.202.44.302.716.302.283 0 .525-.096.727-.292a.996.996 0 00.283-.717c0-.276-.095-.514-.283-.716a1.01 1.01 0 00-.727-.303zm15.31-1.554h1.513a.88.88 0 01.646.272.865.865 0 01.263.636.898.898 0 01-.909.908h-1.513v1.514a.898.898 0 01-.909.908.865.865 0 01-.635-.262.884.884 0 01-.273-.646V8.328h-1.514a.865.865 0 01-.635-.262.884.884 0 01-.273-.646c0-.248.09-.46.273-.636a.852.852 0 01.635-.272h1.514V4.998c0-.248.09-.46.273-.636a.852.852 0 01.635-.272.88.88 0 01.646.272.865.865 0 01.263.636v1.514z"/></svg>