<svg xmlns="http://www.w3.org/2000/svg" viewBox="0 0 21.5 21" width="29" height="28"><circle cx="10.8" cy="10.5" r="9.7" fill="#fff"/><linearGradient id="a" gradientUnits="userSpaceOnUse" x1="-147.022" y1="436.699" x2="-146.274" y2="436.699" gradientTransform="matrix(16.6551 0 0 -16.8614 2453.19 7374.631)"><stop offset="0" stop-color="#e6e6e6"/><stop offset=".16" stop-color="#f6f6f6"/><stop offset=".3" stop-color="#fff"/><stop offset=".7" stop-color="#fff"/><stop offset=".84" stop-color="#f6f6f6"/><stop offset="1" stop-color="#e6e6e6"/></linearGradient><path d="M4.5 8c-.1 4.3 2.5 7.9 6.2 9.6 3.6-1.6 6.2-5.2 6.3-9.4 0-.4 0-.8-.1-1.1C13.2 4.3 8.3 4.3 4.6 7c0 .3-.1.7-.1 1zm.8-.5c2-1.3 3.8-1.6 4.7-1.7h1.3c.9.1 2.8.4 4.7 1.7.1 1.1 0 2.3-.4 3.4-.3 1.1-.9 2.2-1.6 3.1-.9 1.1-2 2-3.4 2.7-1.3-.7-2.4-1.6-3.3-2.7-.7-.9-1.3-2-1.6-3.1-.3-1.1-.5-2.2-.4-3.4z" fill="url(#a)"/><linearGradient id="b" gradientUnits="userSpaceOnUse" x1="-144.665" y1="443.708" x2="-144.628" y2="442.969" gradientTransform="matrix(13.8228 0 0 -23.9958 2004.836 10647.954)"><stop offset="0" stop-color="#ff7800"/><stop offset=".6" stop-color="#ff7800"/><stop offset=".76" stop-color="#fc6f00"/><stop offset="1" stop-color="#f55a00"/></linearGradient><path d="M4.5 8c0-.3 0-.7.1-1v-.3c.1-.8.4-1.7.7-2.4.6-1.4 1.5-2.7 2.6-3.8h-.1C4.2 1.6 1.5 4.5.7 8.1S1 15.5 3.6 18c.2.1.4.1.6.2 1.3.3 2.7.4 4.1.1.8-.1 1.6-.4 2.3-.7-3.5-1.7-6.1-5.3-6.1-9.6z" fill="url(#b)"/><linearGradient id="c" gradientUnits="userSpaceOnUse" x1="-149.334" y1="437.014" x2="-148.578" y2="436.963" gradientTransform="matrix(22.1682 0 0 -17.1478 3315.188 7499.732)"><stop offset="0" stop-color="#5e29dd"/><stop offset=".35" stop-color="#8050ff"/><stop offset="1" stop-color="#8050ff"/></linearGradient><path d="M13.7.5C11.8 0 9.8 0 7.9.5c-1.1 1-2 2.3-2.6 3.8-.3.7-.6 1.6-.7 2.4V7c3.7-2.7 8.7-2.7 12.3 0l.1.1c.1.1.2.2.3.2.6.5 1.2 1.1 1.7 1.8.1.1.1.2.2.3.8 1.1 1.3 2.3 1.6 3.6C22.2 7.6 19 2.1 13.7.5z" fill="url(#c)"/><linearGradient id="d" gradientUnits="userSpaceOnUse" x1="-148.917" y1="438.942" x2="-149.499" y2="438.55" gradientTransform="matrix(23.1456 0 0 -18.5625 3466.631 8159.242)"><stop offset="0" stop-color="#f3aa0b"/><stop offset=".4" stop-color="#f1c80b"/><stop offset="1" stop-color="#f1c80b"/></linearGradient><path d="M19.2 9.4c-.1-.1-.1-.2-.2-.3-.5-.7-1.1-1.2-1.7-1.8-.1-.1-.2-.2-.3-.2l-.1-.1c.1.4.1.8.1 1.1 0 4.2-2.6 7.8-6.3 9.4-.7.3-1.5.6-2.3.7-1.4.2-2.7.2-4.1-.1-.3 0-.5 0-.7-.1 2.7 2.6 6.5 3.5 10.1 2.5 3.6-1 6.3-3.9 7.2-7.5-.3-1.4-.9-2.6-1.7-3.6z" fill="url(#d)"/><linearGradient id="e" gradientUnits="userSpaceOnUse" x1="-118.025" y1="399.972" x2="-117.867" y2="400.666" gradientTransform="matrix(4.0376 0 0 -6.435 486.835 2586.837)"><stop offset="0" stop-color="#2d364c"/><stop offset="1" stop-color="#4e5d85"/></linearGradient><path d="M10.1 11.3V13c0 .1.1.2.2.2h.8c.1 0 .2-.1.2-.2v-1.7c.7-.3 1-1 .9-1.7-.1-.7-.8-1.2-1.5-1.2s-1.3.5-1.5 1.2c-.1.7.3 1.5.9 1.7z" fill="url(#e)"/><radialGradient id="f" cx="-143.005" cy="427.224" r=".523" gradientTransform="matrix(11.9076 0 0 -11.9076 1713.111 5094.018)" gradientUnits="userSpaceOnUse"><stop offset="0" stop-color="#fff"/><stop offset="1" stop-color="#fff" stop-opacity="0"/></radialGradient><ellipse cx="10.7" cy="6.7" rx="6.2" ry="4.4" opacity=".05" fill="url(#f)"/><radialGradient id="g" cx="-148.93" cy="426.714" r=".529" gradientTransform="scale(12.3135 -12.3135) rotate(9.841 2405.943 1086.144)" gradientUnits="userSpaceOnUse"><stop offset="0" stop-color="#fff"/><stop offset="1" stop-color="#fff" stop-opacity="0"/></radialGradient><path d="M13.7.5C12.9.3 12 .1 11.1.1c-.7 1.3-.9 2.7-.7 4.1 0 .2.1.5.2.7h.1c2.2 0 4.3.7 6.1 2l.2.2c.1.1.2.2.3.2.6.5 1.2 1.1 1.7 1.8.1.1.1.2.2.2.6-.2 1.2-.5 1.7-.9-.8-3.8-3.5-6.8-7.2-7.9z" opacity=".17" fill="url(#g)"/><radialGradient id="h" cx="-134.825" cy="407.363" r=".905" gradientTransform="matrix(7.3258 0 0 -7.3258 989.098 2992.225)" gradientUnits="userSpaceOnUse"><stop offset="0" stop-color="#fff"/><stop offset="1" stop-color="#fff" stop-opacity="0"/></radialGradient><path d="M4.5 8c0-.3 0-.7.1-1v-.3c.2-1.3.6-2.5 1.2-3.6-.3-.4-.7-.7-1.2-1C.7 5-.7 10.1 1.2 14.5c1.7 0 3.3-.5 4.5-1.6-.8-1.5-1.2-3.2-1.2-4.9z" opacity=".2" fill="url(#h)"/><radialGradient id="i" cx="-148.053" cy="422.934" r=".591" gradientTransform="scale(11.0299 -11.0299) rotate(9.841 2392.994 1078.125)" gradientUnits="userSpaceOnUse"><stop offset="0" stop-color="#fff"/><stop offset="1" stop-color="#fff" stop-opacity="0"/></radialGradient><path d="M15.9 12.6c-1.1 2.2-2.9 3.9-5.2 4.9-.7.3-1.5.6-2.3.7h-.2c-.1.6-.1 1.2 0 1.8 0 .1.1.3.1.4 4.7 1.2 9.5-1 11.8-5.2-1.1-1.3-2.6-2.2-4.2-2.6z" opacity=".38" fill="url(#i)"/></svg>