<svg xmlns="http://www.w3.org/2000/svg" width="16" height="16"><path fill="#2D364C" fill-rule="evenodd" d="M8 8c1.69 0 3.156.556 4.358 1.654.715.665 1.642 1.713 1.642 2.78 0 .733-.51 1.478-1.385 1.559L3.543 14C2.57 14 2 13.21 2 12.434c0-1.067.927-2.115 1.64-2.777C4.843 8.557 6.31 8 8 8zm0 1.2c-1.394 0-2.57.447-3.543 1.335-.783.729-1.257 1.435-1.257 1.899 0 .217.134.366.343.366h8.914c.21 0 .343-.149.343-.366 0-.465-.475-1.172-1.252-1.894C10.57 9.647 9.393 9.2 8 9.2zM8 1a3 3 0 110 6 3 3 0 010-6zm0 1.2a1.8 1.8 0 100 3.6 1.8 1.8 0 000-3.6z"/></svg>