<svg xmlns="http://www.w3.org/2000/svg" width="664" height="664"><path fill="#F4F3FA" fill-rule="evenodd" d="M571.37 410.662c-53.995-39.405-66.83-122.2-25.67-175.773 11.95-15.496 26.554-26.122 42.93-37.19 17.26-11.513 32.75-27.894 41.16-45.162 16.375-34.535 12.392-78.367-12.835-111.13C593.055 10.412 554.994-5.969 513.835 2c-19.474 3.542-35.85 11.512-52.668 26.565C444.35 43.62 439.923 59.56 420.45 78.597c-30.538 30.108-67.272 44.718-111.087 42.062-21.244-1.328-39.39-6.641-60.634-18.596-23.014-12.84-32.308-28.779-50.011-32.763-18.588-4.428-38.947.885-51.34 15.053-16.817 19.481-14.604 37.191-7.08 60.215 7.08 21.695 12.834 42.947 14.162 65.97 1.328 22.58-1.328 45.603-7.966 67.298-11.95 39.848-40.718 77.04-68.6 101.834-23.014 20.366-38.947 23.466-53.995 37.634C9.294 430.586 0 449.624 0 470.877c0 37.191 26.555 68.184 61.518 74.382 27.44 5.313 53.553-7.526 61.962-10.183 57.092-18.153 128.79-15.939 180.572-.885 42.93 12.397 79.664 34.534 114.185 62.428 16.818 13.282 29.21 31.435 46.913 43.832 45.143 31.879 122.595 38.52 172.164-25.68 33.636-42.504 41.602-117.329-12.393-167.803-21.686-20.366-35.849-23.466-53.552-36.306z"/></svg>