<svg xmlns="http://www.w3.org/2000/svg" width="32" height="32"><path fill="#FFF" fill-rule="evenodd" d="M9 10h15a7.283 7.283 0 00-2.171-5.028 7.173 7.173 0 00-1.414-1.105l1.514-2.31a.389.389 0 00-.102-.503.39.39 0 00-.504.101c-1.014 1.57-1.519 2.373-1.514 2.41a7.175 7.175 0 00-3.283-.754c-1.116 0-2.218.24-3.232.704 0-.033-.507-.82-1.521-2.363a.393.393 0 00-.505-.1.388.388 0 00-.097.505l1.514 2.312c-.52.323-1.01.693-1.464 1.104C9.847 6.273 9.048 8.113 9 10zm10.503-4a.582.582 0 01.358.138.459.459 0 01.138.36.49.49 0 01-.169.363.454.454 0 01-.359.138.395.395 0 01-.33-.166.459.459 0 01-.138-.36.36.36 0 01.14-.335.524.524 0 01.36-.138zm-5.644.14a.482.482 0 01.139.388.398.398 0 01-.167.333.457.457 0 01-.36.139.397.397 0 01-.332-.167.46.46 0 01-.138-.361.451.451 0 01.166-.362.587.587 0 01.333-.108.58.58 0 01.36.137zM6.5 11A1.5 1.5 0 018 12.5v8a1.5 1.5 0 01-3 0v-8A1.5 1.5 0 016.5 11zm20 0a1.5 1.5 0 011.5 1.5v8a1.5 1.5 0 01-3 0v-8a1.5 1.5 0 011.5-1.5zM24 11v11a2 2 0 01-2 2h-1v4.5a1.5 1.5 0 01-3 0V24h-3v4.5a1.5 1.5 0 01-3 0V24h-1a2 2 0 01-2-2V11h15z"/></svg>