<svg xmlns="http://www.w3.org/2000/svg" width="16" height="16"><path d="M4 12.25c0 .344.3.625.667.625h.666v2.188c0 .518.447.937 1 .937.554 0 1-.419 1-.938v-2.187h1.334v2.188c0 .518.446.937 1 .937.553 0 1-.419 1-.938v-2.187h.666c.367 0 .667-.281.667-.625V6H4v6.25zM2 6a1 1 0 011 1v4a1 1 0 01-2 0V7a1 1 0 011-1zm12 0a1 1 0 011 1v4a1 1 0 01-2 0V7a1 1 0 011-1zM11.22.614a.372.372 0 000-.507.314.314 0 00-.473 0L9.76 1.164A3.706 3.706 0 008 .714c-.64 0-1.24.165-1.773.45L5.233.107a.314.314 0 00-.473 0 .372.372 0 000 .507l.873.936C4.647 2.329 4 3.579 4 5h8c0-1.421-.647-2.679-1.647-3.457l.867-.929zM7 4H6V3h1v1zm3 0H9V3h1v1z" fill="#A8A4C2" fill-rule="evenodd"/></svg>