<svg xmlns="http://www.w3.org/2000/svg" xmlns:xlink="http://www.w3.org/1999/xlink" width="29" height="28"><defs><path id="a" d="M10.952 2.29c-.679-.356-1.176-.557-1.487-.61h-.004c-.417-.079-.803.027-1.158.32v.005c-.48.394-.83 1.45-1.056 3.171a28.181 28.181 0 00-.2 4.662c0 .022-.004.04-.018.057a.112.112 0 01-.044.035.092.092 0 01-.058.009c-.679-.14-1.185-.267-1.513-.386-.018-.009-.036-.017-.044-.035a.083.083 0 01-.018-.052 25.273 25.273 0 01-.005-1.946c-1.286.29-2.267.636-2.942 1.034-.457.268-.692.495-.705.68.018.499.967 1.003 2.853 1.524 2.303.63 5.112.946 8.431.946 3.337 0 6.16-.315 8.463-.946 1.9-.521 2.858-1.025 2.87-1.525-.012-.184-.248-.411-.714-.679-.678-.398-1.672-.744-2.973-1.034.036.71.04 1.359.018 1.946a.123.123 0 01-.018.052.112.112 0 01-.044.035c-.346.119-.86.25-1.531.386-.018 0-.04 0-.058-.009-.017-.009-.035-.018-.044-.035a.123.123 0 01-.018-.057c.04-1.262.018-2.4-.058-3.426v-.004C18.7 3.985 18.31 2.518 17.702 2a1.347 1.347 0 00-1.168-.32h-.004c-.302.053-.799.254-1.478.61l.005-.005c-.826.456-1.487.683-1.975.679h-.142c-.488 0-1.145-.223-1.975-.68l-.013.005zM7.212.737C7.956.125 8.786-.107 9.7.046c.51.08 1.189.346 2.04.802h-.004c.635.32 1.03.486 1.185.49h.151c.151-.004.546-.166 1.176-.49h-.004C15.088.392 15.77.125 16.29.046c.928-.153 1.762.075 2.49.692.923.785 1.504 2.471 1.748 5.065 3.666.754 5.49 1.897 5.472 3.435.013 1.314-1.38 2.352-4.185 3.12-2.414.66-5.36.994-8.835.994-3.461 0-6.395-.333-8.786-.995-2.81-.77-4.207-1.81-4.194-3.124-.013-1.537 1.806-2.68 5.454-3.434.244-2.59.825-4.28 1.757-5.06zm7.246 14.59v-.005a9.938 9.938 0 011.224-.42 6.639 6.639 0 011.74-.233c1.234 0 2.299.202 3.195.596.51.22.967.522 1.371.907l.005.004c.009.01.017.018.017.031a.127.127 0 01.01.04v.461c-.023 1.507-.196 2.593-.529 3.26C20.834 21.32 19.574 22 17.701 22c-1.748 0-2.968-.57-3.665-1.704v.004c-.43-.692-.67-1.67-.705-2.93a3.863 3.863 0 01-.697 0c-.036 1.108-.209 1.966-.524 2.575-.683 1.367-1.966 2.05-3.852 2.05-1.894 0-3.155-.678-3.78-2.037v.005c-.342-.71-.515-1.796-.515-3.26v-.46c0-.013.004-.026.009-.04.004-.012.013-.021.018-.03a4.752 4.752 0 011.357-.911c.897-.399 1.962-.596 3.195-.596.604 0 1.185.074 1.74.232.302.08.706.22 1.22.42l.005.005c.568.259 1.051.39 1.446.39.44.009.932-.123 1.505-.385zm.568 1.568c.004 1.095.128 1.87.368 2.34.364.744 1.14 1.121 2.32 1.121 1.16 0 1.918-.368 2.282-1.104.222-.464.333-1.227.337-2.283-.714-.424-1.686-.64-2.907-.644a5.09 5.09 0 00-1.282.154c-.102.03-.32.105-.652.232l-.466.184zm-5.157-.416a5.375 5.375 0 00-1.304-.154c-1.185 0-2.157.215-2.916.644.005 1.056.116 1.819.337 2.283.382.736 1.15 1.104 2.295 1.104 1.113 0 1.868-.329 2.267-.99.27-.478.408-1.301.413-2.471-.564-.237-.928-.377-1.092-.416z"/></defs><use fill="#FF7800" fill-rule="evenodd" transform="translate(1.5 3)" xlink:href="#a"/></svg>