<svg xmlns="http://www.w3.org/2000/svg" width="28" height="28" viewBox="0 0 34 54"><path fill="#FF7800" d="M8.226 20.39c0-.306.248-.553.544-.553h16.46c.3 0 .544.248.544.552v24.793a.552.552 0 01-.544.553H8.77a.55.55 0 01-.544-.553V20.389zM4.936 9.913v37.478c0 .906.738 1.649 1.648 1.649h20.832c.913 0 1.649-.739 1.649-1.65V9.915c0-.906-.74-1.649-1.65-1.649H6.586c-.914 0-1.65.738-1.65 1.649zm6.58-6.608V.552c0-.305.25-.552.544-.552h9.88c.3 0 .544.25.544.552v2.754h7.132c2.421 0 4.384 1.972 4.384 4.41V49.59c0 2.436-1.963 4.41-4.384 4.41H4.384C1.963 54 0 52.028 0 49.59V7.716c0-2.436 1.963-4.41 4.384-4.41h7.132z" mask="url(#b)"/></svg>