<svg xmlns="http://www.w3.org/2000/svg" width="1600" height="1119"><defs><linearGradient id="a" x1="-2285.26" y1="603.79" x2="-2285.26" y2="602.81" gradientTransform="matrix(1600 0 0 -1119 3657217.81 675664)" gradientUnits="userSpaceOnUse"><stop offset="0" stop-color="#0c053e"/><stop offset="1" stop-color="#261c6a"/></linearGradient><linearGradient id="b" x1="1563.68" y1="289.35" x2="855.3" y2="450.29" gradientUnits="userSpaceOnUse"><stop offset="0" stop-color="#4e22d0"/><stop offset="1" stop-color="#261c6a" stop-opacity=".25"/></linearGradient><linearGradient id="c" x1="628.49" y1="960.32" x2="19.34" y2="463.21" gradientUnits="userSpaceOnUse"><stop offset="0" stop-color="#4e22d0"/><stop offset="1" stop-color="#261c6a" stop-opacity=".5"/></linearGradient></defs><path fill="url(#a)" fill-rule="evenodd" d="M0 0h1600v1119H0V0z"/><path d="M1600 316.3c-40.4-12.4-61.9-8.1-93.8-14.3-101.5-20-173.8-127.9-151.1-230.1 5.9-26.4 17.3-48.7 30.9-71.9h-345.6c-23.2 28.9-53.6 51.1-91.7 66.1-30.7 12.1-59.6 16.5-97.2 13.6-40.7-3-64.2-19.3-91.7-13.3s-54 26.7-62.1 54.7c-10.9 38.4 3.8 61.8 29.5 89.3 24.1 25.8 46.1 51.9 63 83.4a297.2 297.2 0 0132.9 99.7c9.3 63.8-6.7 134.8-29.6 187.9-18.9 43.7-39.2 58.5-51.1 88.2a112.1 112.1 0 001.6 90.9c24.3 52.2 81.9 78.4 135 64.2 42-10.5 70.2-45.6 80.3-54.8 68.2-62.9 170.2-106.7 252.7-119.5 68.4-10.6 134.4-3.6 201.1 13 32.3 7.7 61.6 25 94.5 30.9 29 5.2 61.3 3.7 92.4-5.4z" style="isolation:isolate" opacity=".25" fill="url(#b)" fill-rule="evenodd"/><path d="M774.9 456.5c-35.8-8.9-71.1 6.3-82.3 9.2-76.5 20-170.8 12.1-238-11.3-55.7-19.3-102.6-51.1-146.1-90.2-21.2-18.7-36.3-43.5-58.8-61.1-57.3-45.2-158.8-59.3-228.6 22A161.9 161.9 0 000 356v156.5a166.3 166.3 0 0025.9 34.8c27.1 28.3 45.6 33.4 68 51.6 68.4 55.7 79.6 165.8 21.7 233.6-16.8 19.6-36.8 32.6-59.2 46.1s-44 33.5-56.4 55.1v135.4c2.5 4.6 5.3 9.2 8.3 13.7a145.3 145.3 0 0035.9 36.2h157c3.8-2.6 7.6-5.4 11.5-8.6 23.2-18.6 30.1-39.4 57.1-63.1 42.3-37.6 91.7-54.4 149.2-47.8 27.9 3.2 51.5 11.4 78.6 28.7 29.5 18.5 40.6 40.2 63.7 46.6s51.3 1.6 68.6-16.3c23.5-24.5 21.9-48 13.5-78.9-7.8-29.1-13.9-57.5-14.1-88a253 253 0 0115.2-88.2c18.5-51.7 58.9-98.8 97.4-129.6 31.7-25.3 52.9-28.2 73.7-45.9a95.1 95.1 0 0035.2-69c2.6-49.1-30.3-91.8-75.9-102.4z" style="isolation:isolate" opacity=".15" fill="url(#c)" fill-rule="evenodd"/></svg>