<svg xmlns="http://www.w3.org/2000/svg" width="1600" height="600"><defs><linearGradient id="a" x1="-100.45" y1="604.28" x2="-100.45" y2="603.3" gradientTransform="matrix(1600 0 0 -600 161520 362580)" gradientUnits="userSpaceOnUse"><stop offset="0" stop-color="#0c053e"/><stop offset="1" stop-color="#261c6a"/></linearGradient><linearGradient id="b" x1="1594.04" y1="132.96" x2="865.08" y2="216.42" gradientUnits="userSpaceOnUse"><stop offset="0" stop-color="#4e22d0"/><stop offset="1" stop-color="#261c6a" stop-opacity=".25"/></linearGradient><linearGradient id="c" x1="579.15" y1="487.36" x2="15.21" y2="62.92" gradientUnits="userSpaceOnUse"><stop offset="0" stop-color="#4e22d0"/><stop offset="1" stop-color="#261c6a" stop-opacity=".5"/></linearGradient></defs><path fill="url(#a)" fill-rule="evenodd" d="M0 0h1600v600H0V0z"/><path d="M1600 0H821.7l.6 3.8c9.3 63.8-6.7 134.9-29.6 188-18.9 43.6-39.3 58.4-51.1 88.2a111.7 111.7 0 001.6 90.9c24.3 52.2 81.9 78.4 135 64.2 42-10.5 70.2-45.6 80.2-54.9 68.3-62.8 170.3-106.7 252.8-119.4 68.4-10.7 134.4-3.6 201.1 13 32.3 7.6 61.6 25 94.5 30.8a202.4 202.4 0 0093.2-5.6z" style="isolation:isolate" opacity=".25" fill="url(#b)" fill-rule="evenodd"/><path d="M0 153.3a167.6 167.6 0 0025 33.3c27.2 28.4 45.6 33.5 68.1 51.6 68.4 55.7 79.6 165.8 21.7 233.6-16.9 19.6-36.8 32.7-59.2 46.1S12.5 550.6 0 571.7V600h637.8c-5.4-22.6-9.2-45.2-9.3-69a252.6 252.6 0 0115.2-88.2c18.5-51.8 58.9-98.8 97.4-129.6 31.7-25.3 52.9-28.3 73.7-45.9a95.5 95.5 0 0035.2-69c2.6-49.1-30.3-91.8-75.9-102.4-35.8-8.9-71.1 6.2-82.3 9.2-76.5 20-170.8 12.1-238-11.3-55.7-19.4-102.6-51.1-146.1-90.3L303.8 0H0z" style="isolation:isolate" opacity=".15" fill="url(#c)" fill-rule="evenodd"/></svg>