<svg xmlns="http://www.w3.org/2000/svg" xmlns:xlink="http://www.w3.org/1999/xlink" width="64" height="64"><defs><radialGradient id="j" cx="-4.847%" cy="-.239%" r="401.337%" fx="-4.847%" fy="-.239%" gradientTransform="matrix(.26722 0 0 1 -.036 0)"><stop offset="0%" stop-color="#3E2723" stop-opacity=".2"/><stop offset="100%" stop-color="#3E2723" stop-opacity="0"/></radialGradient><radialGradient id="m" cx="-.122%" cy=".104%" r="136.314%" fx="-.122%" fy=".104%" gradientTransform="scale(1 .84752)"><stop offset="0%" stop-color="#3E2723" stop-opacity=".2"/><stop offset="100%" stop-color="#3E2723" stop-opacity="0"/></radialGradient><radialGradient id="n" cx="10.227%" cy="-12.225%" r="226.352%" fx="10.227%" fy="-12.225%" gradientTransform="matrix(1 0 0 .49642 0 -.062)"><stop offset="0%" stop-color="#263238" stop-opacity=".2"/><stop offset="100%" stop-color="#263238" stop-opacity="0"/></radialGradient><linearGradient id="c" x1="4.549%" x2="36.95%" y1="55.356%" y2="42.739%"><stop offset="0%" stop-color="#A52714" stop-opacity=".6"/><stop offset="66%" stop-color="#A52714" stop-opacity="0"/></linearGradient><linearGradient id="d" x1="70.039%" x2="41.91%" y1="87.776%" y2="66.337%"><stop offset="0%" stop-color="#055524" stop-opacity=".4"/><stop offset="33%" stop-color="#055524" stop-opacity="0"/></linearGradient><linearGradient id="g" x1="41.002%" x2="49.277%" y1="-4.844%" y2="45.391%"><stop offset="0%" stop-color="#EA6100" stop-opacity=".3"/><stop offset="66%" stop-color="#EA6100" stop-opacity="0"/></linearGradient><path id="e" d="M0 45.476h23.809L34.86 34.425v-8.276H15.163L0 .136z"/><path id="h" d="M1.421 0l9.848 17.053L.219 36.381h26.214V0z"/><path id="k" d="M.276 0v11.466l11.195 19.23 9.846-17.053h25.012V0z"/><circle id="a" cx="25" cy="25" r="25"/></defs><g fill="none" fill-rule="evenodd" transform="translate(7 7)"><mask id="b" fill="#fff"><use xlink:href="#a"/></mask><g mask="url(#b)"><path fill="#DB4437" fill-rule="nonzero" d="M3.971 0v30.696h11.198l9.843-17.053h25.011V0z"/><path fill="url(#c)" fill-rule="nonzero" d="M3.971 0v30.696h11.198l9.843-17.053h25.011V0z"/><path fill="#3E2723" fill-opacity=".15" fill-rule="nonzero" d="M15.433 30.583L4.116 11.17l-.165.284 11.238 19.271z"/><path fill="#0F9D58" fill-rule="nonzero" d="M0 50.024h23.809L34.86 38.973v-8.276H15.163L0 4.684z"/><path fill="url(#d)" fill-rule="nonzero" d="M0 50.023h23.809l11.051-11.05v-8.277H15.163L0 4.684z"/><path fill="#263238" fill-opacity=".15" fill-rule="nonzero" d="M34.619 31.066l-.236-.137-10.915 19.086h.327l10.829-18.941z"/><g transform="translate(0 4.548)"><mask id="f" fill="#fff"><use xlink:href="#e"/></mask><g fill-rule="nonzero" mask="url(#f)"><path fill="#FFCD40" d="M25.011 9.095l9.848 17.053-11.05 19.328h26.214V9.095z"/><path fill="url(#g)" d="M1.421 0l9.848 17.053L.219 36.381h26.214V0z" transform="translate(23.59 9.095)"/></g></g><path fill="#FFCD40" fill-rule="nonzero" d="M25.012 13.643l9.848 17.053-11.051 19.327h26.214v-36.38z"/><path fill="url(#g)" fill-rule="nonzero" d="M25.012 13.643l9.848 17.053-11.051 19.327h26.214v-36.38z"/><g transform="translate(23.59 13.643)"><mask id="i" fill="#fff"><use xlink:href="#h"/></mask><g fill-rule="nonzero" mask="url(#i)"><path fill="#DB4437" d="M-19.62-13.643v30.696h11.198L1.421 0h25.012v-13.643z"/><path fill="url(#c)" d="M.276 0v30.696h11.198l9.843-17.053h25.012V0z" transform="translate(-19.896 -13.643)"/></g></g><g transform="translate(3.695)"><path fill="url(#j)" fill-rule="nonzero" d="M21.317 13.643v5.954L43.6 13.643z"/><mask id="l" fill="#fff"><use xlink:href="#k"/></mask><g fill-rule="nonzero" mask="url(#l)"><path fill="#0F9D58" d="M-3.695 50.024h23.809l11.051-11.051v-8.276H11.468L-3.695 4.684z"/><path fill="url(#d)" d="M0 45.476h23.809L34.86 34.425v-8.276H15.163L0 .136z" transform="translate(-3.695 4.548)"/></g></g><path fill="url(#m)" fill-rule="nonzero" d="M3.971 11.497l16.271 16.269-5.076 2.93z"/><g fill-rule="nonzero"><path fill="url(#n)" d="M23.827 49.995l5.957-22.226 5.076 2.927z"/><circle cx="25.012" cy="25.012" r="11.369" fill="#F1F1F1"/><circle cx="25.012" cy="25.012" r="9.095" fill="#4285F4"/><path fill="#3E2723" fill-opacity=".2" d="M25.012 13.359c-6.282 0-11.37 5.087-11.37 11.369v.284c0-6.282 5.088-11.37 11.37-11.37h25.011v-.283H25.012z"/><path fill="#FFF" fill-opacity=".1" d="M34.846 30.696c-1.967 3.394-5.628 5.685-9.834 5.685-4.207 0-7.873-2.291-9.834-5.685h-.012L0 4.684v.284L15.178 30.98c1.966 3.394 5.627 5.685 9.834 5.685 4.206 0 7.867-2.288 9.834-5.685h.014v-.284h-.017.003z"/><path fill="#3E2723" d="M25.296 13.643c-.048 0-.094.005-.142.008 6.213.077 11.227 5.13 11.227 11.36 0 6.23-5.014 11.284-11.227 11.361.048 0 .094.009.142.009 6.281 0 11.369-5.088 11.369-11.37 0-6.28-5.088-11.368-11.369-11.368z" opacity=".1"/><path fill="#FFF" fill-opacity=".2" d="M34.96 31.066a11.296 11.296 0 001.526-5.673c0-1.166-.179-2.325-.532-3.437.27.972.427 1.99.427 3.05 0 2.07-.56 4.002-1.527 5.673l.006.012-11.05 19.327h.33l10.82-18.952z"/><path fill="#FFF" fill-opacity=".2" d="M25.012.284c13.765 0 24.932 11.122 25.011 24.87 0-.048.003-.094.003-.142C50.026 11.198 38.828 0 25.015 0 11.2 0 0 11.198 0 25.012c0 .048.003.094.003.142C.08 11.406 11.247.284 25.012.284z"/><path fill="#3E2723" fill-opacity=".15" d="M25.012 49.74c13.765 0 24.932-11.122 25.011-24.87 0 .048.003.093.003.142 0 13.813-11.198 25.011-25.011 25.011C11.2 50.023 0 38.825 0 25.012c0-.049.003-.094.003-.142.077 13.748 11.244 24.87 25.012 24.87h-.003z"/></g></g></g></svg>