<svg xmlns="http://www.w3.org/2000/svg" width="29" height="28"><path fill="#FF7800" fill-rule="evenodd" d="M25.882 2.19a.774.774 0 01.433.225.752.752 0 01.217.433c.241 1.58.222 3.252-.06 5.016-.3 1.844-.865 3.512-1.691 5.007-.866 1.607-2.426 3.102-4.682 4.485h-.01c-.472.276-1.112.63-1.918 1.063v3.747a.78.78 0 01-.227.56l-2.97 2.971a.827.827 0 01-.452.226.802.802 0 01-.836-.481l-1.968-4.702-3.757-3.738-4.682-1.957a.713.713 0 01-.374-.335.728.728 0 01-.098-.491.72.72 0 01.226-.463l2.98-2.97a.748.748 0 01.551-.226h3.827a26.92 26.92 0 011.013-1.889c1.351-2.296 2.828-3.88 4.436-4.75 1.495-.821 3.236-1.394 5.223-1.722a15.064 15.064 0 014.82-.01zm-.826 1.474a13.526 13.526 0 00-3.738.089c-1.803.301-3.38.82-4.73 1.554l.01-.01c-1.384.781-2.672 2.164-3.867 4.151v.01c-.17.281-.668 1.24-1.495 2.872a163.66 163.66 0 00-1.888 3.836l3.216 3.197c.655-.25 1.843-.807 3.56-1.672 1.344-.683 2.303-1.187 2.873-1.515l.295-.177c1.967-1.2 3.334-2.493 4.102-3.876.741-1.351 1.249-2.856 1.524-4.514.223-1.377.268-2.691.138-3.945zm-4.859 4.87l-.01-.01a1.617 1.617 0 00-1.22-.502h-.01a1.65 1.65 0 00-1.219.511 1.63 1.63 0 00-.502 1.21v.01c-.005.478.158.89.492 1.23a.01.01 0 01.01.01c.34.328.754.487 1.24.481.472 0 .875-.163 1.21-.491.334-.34.505-.754.51-1.24a1.63 1.63 0 00-.5-1.21zm-1.241-2.086a3.14 3.14 0 012.34.964l.01.01c.644.635.965 1.41.965 2.321v.01a3.24 3.24 0 01-.974 2.341 3.171 3.171 0 01-2.312.954h-.01c-.924.006-1.707-.309-2.35-.944l-.01-.01c-.644-.65-.96-1.432-.954-2.35 0-.912.32-1.687.963-2.322a3.162 3.162 0 012.332-.974zM4.979 14.042l3.03 1.268a102.42 102.42 0 011.553-3.177H6.897l-1.918 1.909zm11.616 7.8v-2.646c-.93.446-1.993.948-3.187 1.505l1.279 3.049 1.908-1.908zm-8.862-2.243a.78.78 0 01-.227.56l-3.658 3.65a.78.78 0 01-.561.226.749.749 0 01-.551-.226.766.766 0 01-.236-.56c0-.217.079-.4.236-.552l3.659-3.649a.736.736 0 01.551-.236c.216 0 .403.079.56.236a.748.748 0 01.227.55zm1.947 2.734L8.284 23.72a.78.78 0 01-.561.226.748.748 0 01-.55-.226.765.765 0 01-.237-.56c0-.217.079-.4.236-.551l1.397-1.387a.735.735 0 01.55-.236c.217 0 .404.078.561.236a.748.748 0 01.227.55.78.78 0 01-.227.561zm17.461.374a.875.875 0 01-.885.885h-1.475v1.476a.875.875 0 01-.886.885.843.843 0 01-.62-.256.862.862 0 01-.265-.63v-1.475h-1.475a.843.843 0 01-.62-.255.862.862 0 01-.266-.63.83.83 0 01.266-.62.83.83 0 01.62-.265h1.475v-1.476a.83.83 0 01.266-.62.83.83 0 01.62-.265c.241 0 .452.089.629.266a.843.843 0 01.256.62v1.475h1.475c.242 0 .452.088.63.265a.853.853 0 01.255.62z"/></svg>