<svg xmlns="http://www.w3.org/2000/svg" width="66" height="50"><path fill="#FFF" fill-rule="evenodd" d="M.081 47.884h9.917c12.982.002 24.051-4.592 33.207-13.781C51.854 25.54 56.462 15.254 57.03 3.246l-6.462 5.692-1.302-1.498L57.28.399a.712.712 0 01.125-.149.959.959 0 01.627-.25h.049a.482.482 0 01.076 0c.03.002.063.002.1 0 .222.042.413.15.576.325l7.161 8.039-1.477 1.323-5.509-6.142c-.629 12.427-5.429 23.08-14.4 31.957-9.543 9.585-21.079 14.378-34.61 14.379H.006C-.015 48.554.013 49.075 0 48"/></svg>