<svg xmlns="http://www.w3.org/2000/svg" width="80" height="80"><g stroke="#A8A4C3" stroke-width="1.5" fill="none" fill-rule="evenodd" stroke-linecap="round" stroke-linejoin="round"><path d="M19.75 29.2c1.733-1.7 3.816-2.55 6.25-2.55 2.433 0 4.517.85 6.25 2.55 1.767 1.767 2.649 3.866 2.649 6.3 0 2.433-.882 4.5-2.649 6.2-1.733 1.767-3.817 2.65-6.25 2.65-2.434 0-4.517-.883-6.25-2.65-1.767-1.7-2.65-3.767-2.65-6.2 0-2.434.883-4.533 2.65-6.3zm9.899-10.25c.034 0 .068.017.101.05 1.933.4 3.733 1.15 5.399 2.25L39.5 18.1l3.8 3.9-3 4.35a15.895 15.895 0 012.25 5.5l5.25.9v5.5l-5.2.9a16.72 16.72 0 01-2.25 5.4l2.95 4.35-3.8 3.85-4.25-3.05c-.033.033-.067.05-.101.05a16.157 16.157 0 01-5.349 2.3h-.1l-.95 5.2H23.3l-.901-5.15A14.874 14.874 0 0117 49.85c-.067 0-.101-.017-.101-.05L12.6 52.75 8.75 48.9l2.95-4.15a15.828 15.828 0 01-2.301-5.6l-5.149-.9v-5.5l5.149-.85a14.906 14.906 0 012.25-5.4c0-.1.018-.15.051-.15L8.75 22l3.85-3.9 4.25 3.15c1.7-1.133 3.533-1.9 5.5-2.3l.95-5.2h5.45l.899 5.2z"/><path d="M62.9 44.05c1.666.767 2.816 2.017 3.45 3.75.633 1.767.567 3.483-.2 5.15-.8 1.667-2.067 2.817-3.8 3.45-1.767.633-3.484.567-5.15-.2-1.634-.766-2.768-2.034-3.4-3.8-.668-1.767-.6-3.484.2-5.15.766-1.667 2.033-2.816 3.8-3.45 1.766-.6 3.466-.517 5.1.25zM46.05 41.3l3.8 1.05c.9-1.2 2-2.2 3.3-3 0-.067.017-.083.05-.05l-.65-3.95 3.9-1.45 1.9 3.55a11.62 11.62 0 014.55.2l2.25-3.3 3.75 1.75-1.05 3.85c.032.034.067.05.1.05 1.2.934 2.182 2.033 2.95 3.3l3.95-.8 1.4 3.9-3.45 2.05c.2 1.5.117 2.984-.25 4.45l3.3 2.3-1.75 3.75-3.85-1.05c-.9 1.2-1.984 2.217-3.25 3.05l.65 3.9-3.9 1.4-1.85-3.45a.393.393 0 01-.15.05c-1.467.2-2.917.134-4.35-.2h-.1L55 65.9l-3.75-1.75 1-3.8c-1.2-.9-2.184-1.983-2.95-3.25-.034-.033-.05-.067-.05-.1l-3.9.65-1.4-3.85 3.4-1.9a11.244 11.244 0 01.15-4.6l-3.2-2.25 1.75-3.75z"/></g></svg>