<svg xmlns="http://www.w3.org/2000/svg" width="80" height="80"><g stroke="#A8A4C3" stroke-width="1.5" fill="none" fill-rule="evenodd" stroke-linecap="round" stroke-linejoin="round"><path d="M14.717 27.4c.302-.1.852-.184 1.65-.25H64.27a52.03 52.03 0 011.449.2m-33 34.4h-12.8c-.7.067-1.333.016-1.9-.15-2.1-.5-3.317-2.266-3.65-5.3l-2.6-23.85c-.165-2.833.801-4.517 2.9-5.05h.05v-11c0-1.767.885-2.65 2.65-2.65h15.9c1.632.067 2.731.883 3.301 2.45l1.648 4.45h24.9c1.734 0 2.6.884 2.6 2.65v4.05c.933.166 1.65.484 2.15.95.734.734 1.033 1.933.9 3.6l-2.65 24.4c-.299 3.034-1.516 4.8-3.65 5.3a10.01 10.01 0 01-1.05.15h-3.8"/><path d="M44.65 54.2L36 47v23.35l6-4.6 3.7 7.85 1.65-.8 2.949-1.35-2.949-6.1-.801-1.75L54 61.9l-6.65-5.45z"/></g></svg>