<svg width="28" height="28" xmlns="http://www.w3.org/2000/svg"><g fill="none" fill-rule="evenodd"><path d="M0 0h28v28H0z"/><path d="M20.948 21.261c.31-.738.466-1.477.466-2.068 0-2.363-1.397-4.432-3.414-5.613.776-.74 1.086-1.773 1.086-2.807 0-.443 0-.739-.155-1.182.776-.443 1.707-.591 2.638-.591C24.517 9 27 11.364 27 14.17c0 1.92-1.862 4.58-5.431 7.83-.155-.295-.466-.443-.62-.739zm-12.896.148L7.43 22C3.862 18.75 2 16.09 2 14.17 2 11.364 4.483 9 7.431 9c.931 0 1.862.295 2.638.59-.155.444-.155.74-.155 1.183 0 1.034.465 2.068 1.086 2.807-2.017 1.181-3.414 3.25-3.414 5.613 0 .887.155 1.625.466 2.216zM22 7c-1.579 0-3-1.081-3-2.568C19 2.946 20.421 2 22 2s3 1.081 3 2.568C25 6.054 23.579 7 22 7zM7 7C5.421 7 4 5.919 4 4.432 4 2.946 5.421 2 7 2s3 1.081 3 2.568C10 6.054 8.579 7 7 7zm7.5 7a2.468 2.468 0 01-2.5-2.5c0-1.406 1.094-2.5 2.5-2.5s2.5 1.094 2.5 2.5-1.094 2.5-2.5 2.5zm.5 12c-3.387-2.82-5-5.077-5-6.628C10 16.974 12.258 15 15 15s5 1.974 5 4.372c0 1.692-1.613 3.807-5 6.628zm-.5-5c.818 0 1.5-.682 1.5-1.5s-.682-1.5-1.5-1.5-1.5.682-1.5 1.5.682 1.5 1.5 1.5z" fill="#FF7800" fill-rule="nonzero"/></g></svg>