<?xml version="1.0"?>
<!--Icons from directory ""-->
<svg xmlns="http://www.w3.org/2000/svg" width="24" height="1200" viewBox="0 0 24 1200"><svg xmlns:xlink="http://www.w3.org/1999/xlink" width="24" height="24" id="1-europe" y="0"><defs><circle id="1-europe-a" cx="12" cy="12" r="10"/></defs><g fill="none" fill-rule="evenodd"><circle cx="12" cy="12" r="11.5" stroke="#AAABB6"/><mask id="1-europe-b" fill="#fff"><use xlink:href="#1-europe-a"/></mask><use fill="#D3D4DE" xlink:href="#1-europe-a"/><path fill="#0052B4" d="M22 12c0 5.523-4.477 10-10 10S2 17.523 2 12 6.477 2 12 2s10 4.477 10 10z" mask="url(#1-europe-b)"/><path fill="#F0F0F0" d="M8.985 7.824a.357.357 0 0 1-.246-.616l.317-.302-.012-.77a.357.357 0 0 1 .352-.363h.006c.195 0 .354.156.357.352l.014.926a.357.357 0 0 1-.111.265l-.431.41a.356.356 0 0 1-.246.098m12.87 2.434c-.768-4.357-4.25-7.552-8.4-8.16l.68.83c.081.1.1.235.05.353l-.463 1.084a.156.156 0 0 1-.27.029l-.435-.611a.345.345 0 0 0-.297-.145l-.464.022a.53.53 0 0 0-.416.235l-1.283 1.918a.3.3 0 0 0 .193.461l.594.115c.2.039.398-.073.469-.264l.291-.785a.301.301 0 0 1 .52-.082l.263.333-.15 1.056a.156.156 0 0 1-.13.132l-1.35.2a.357.357 0 0 0-.159.065l-1.33.974a.7.7 0 0 0-.268.404l-.128.54a.345.345 0 0 1-.377.264l-.602-.074a.345.345 0 0 0-.365.223l-.336.904a.345.345 0 0 0 .228.452l.758.218a.404.404 0 0 0 .48-.222l.49-1.084a.69.69 0 0 1 .42-.373l.811-.259 1.091 1.324-.104.308a.357.357 0 0 0 .677.23l.104-.309a.701.701 0 0 0-.122-.67l-.915-1.117.235-.074.777.481a.71.71 0 0 1 .322.462l.175.84a.357.357 0 1 0 .7-.146l-.09-.479a.3.3 0 0 1 .252-.353.3.3 0 0 0 .252-.238l.171-.845a.345.345 0 0 1 .357-.247l.175.013c.1.007.194-.029.262-.094a.326.326 0 0 1 .251-.103l.543.047a.345.345 0 0 1 .226.25l.052.224a.345.345 0 0 1-.239.409l-1.556.457a.252.252 0 0 0-.118.408l.145.163a.31.31 0 0 0 .256.103l.905-.076a.345.345 0 0 1 .367.276l.046.23a.69.69 0 0 1-.622.823l-1.742.138a.311.311 0 0 0-.275.4.312.312 0 0 1-.397.388l-1.3-.434a.49.49 0 0 1-.33-.387v-.003a.49.49 0 0 0-.495-.412l-1.231.03a3.39 3.39 0 0 0-1.282.287l-.429.188a.69.69 0 0 0-.412.606l-.012.344-1.238 1.415a.69.69 0 0 0-.17.454v1.515c0 .28.113.55.315.745l1.087 1.05c.171.164.393.265.63.286l3.26.281c.202.018.349.2.324.4l-.02.153a.69.69 0 0 0 .273.639l.799.593-.124.398a.69.69 0 0 0 .214.731l.848.732c.844-.149 1.645-.4 2.392-.738l1.32-1.586c.214-.255.39-.54.521-.845l1.47-3.4c.159-.365-.105-.785-.504-.782a1.429 1.429 0 0 1-1.108-.514l-1.465-1.758a.357.357 0 0 1 .55-.457l1.465 1.758a.714.714 0 0 0 .515.256c.203.01.444-.147.536-.329l.852-1.692a.345.345 0 0 0-.111-.438l-.245-.17a.21.21 0 0 1-.057-.285l.12-.19a.69.69 0 0 1 1.066-.124l.928.91a9.955 9.955 0 0 0-.136-1.203" mask="url(#1-europe-b)"/></g></svg><svg xmlns:xlink="http://www.w3.org/1999/xlink" width="24" height="24" id="1-latin" y="24"><defs><circle id="1-latin-a" cx="12" cy="12" r="10"/></defs><g fill="none" fill-rule="evenodd"><circle cx="12" cy="12" r="11.5" stroke="#AAABB6"/><mask id="1-latin-b" fill="#fff"><use xlink:href="#1-latin-a"/></mask><use fill="#D3D4DE" xlink:href="#1-latin-a"/><g mask="url(#1-latin-b)"><g transform="translate(2 -4)"><circle cx="10" cy="16" r="10" fill="#00A651" fill-rule="nonzero"/><path fill="#F0F0F0" d="M9.712 0l1.378.916 2.91.482-.485 1.445-1.455.482-1.455 2.41L8.179 7.18l-3.395.482v1.445l.97.964v1.577l.198-.2L7.381 10l.952 1.931h3.334l1.428 2.414H15l-.476 2.414-1.905 1.93v1.449l-1.905 1.448V24l-1.428-.483-.953-2.414v-4.827l-2.38-.483L5 13.863v-1.45l.544-.552-1.245-.825-1.455-.964L2 7.552A14.014 14.014 0 0 1 9.712 0z"/></g></g></g></svg><svg xmlns:xlink="http://www.w3.org/1999/xlink" width="24" height="24" id="1-worldwide" y="48"><defs><circle id="1-worldwide-a" cx="12" cy="12" r="10"/></defs><g fill="none" fill-rule="evenodd"><circle cx="12" cy="12" r="11.5" stroke="#AAABB6"/><mask id="1-worldwide-b" fill="#fff"><use xlink:href="#1-worldwide-a"/></mask><use fill="#D3D4DE" xlink:href="#1-worldwide-a"/><circle cx="12" cy="12" r="10" fill="#F0F0F0" fill-rule="nonzero" mask="url(#1-worldwide-b)"/><path fill="#00A9FF" fill-rule="nonzero" d="M14.068 5.451l1.38-.345 1.034.345 1.725.345 1.034-.69a9.848 9.848 0 0 1 1.483 2.01l-.103.06-2.07.689-2.069-.345-.69-1.034h-2.068L12.689 7.52l.345 2.414 2.414 1.035 1.38-.345 1.034.69v1.379l.69 1.38.69 1.379v1.38l.93.93c-3.184 4.513-9.425 5.59-13.937 2.405A10.001 10.001 0 0 1 2.778 8.13l.6 1.803 1.035.69 1.034.69-.69.69v1.034l.69 1.38 1.724.344v3.449l.69 1.724 1.035.345v-1.725l1.379-1.034v-1.035l1.38-1.38.344-1.723h-1.38l-1.034-1.725H7.171l-.69-1.38-1.034 1.035V9.934l-.69-.69V8.21l2.414-.345L8.896 6.83 9.93 5.106l1.035-.345.345-1.034-2.07-.345-.979-.655a10.001 10.001 0 0 1 8.194.324l-1.352.676h-1.38l-.69 1.38 1.035.344z" mask="url(#1-worldwide-b)"/></g></svg><svg xmlns:xlink="http://www.w3.org/1999/xlink" width="24" height="24" id="ar-sa" y="72"><defs><circle id="ar-sa-a" cx="12" cy="12" r="10"/></defs><g fill="none" fill-rule="evenodd"><circle cx="12" cy="12" r="11.5" stroke="#AAABB6"/><mask id="ar-sa-b" fill="#fff"><use xlink:href="#ar-sa-a"/></mask><use fill="#D3D4DE" xlink:href="#ar-sa-a"/><g mask="url(#ar-sa-b)"><g fill-rule="nonzero" transform="translate(2 2)"><circle cx="10" cy="10" r="10" fill="#6DA544"/><g fill="#F0F0F0"><path d="M5.652 11.957c0 .72.584 1.304 1.305 1.304h3.913c0 .6.486 1.087 1.087 1.087h1.304c.6 0 1.087-.487 1.087-1.087v-1.304H5.652zm8.805-6.305v3.044c0 .48-.39.87-.87.87v1.304a2.176 2.176 0 0 0 2.174-2.174V5.652h-1.304zM5.109 8.696c0 .48-.39.87-.87.87v1.304a2.176 2.176 0 0 0 2.174-2.174V5.652H5.109v3.044z"/><path d="M12.5 5.652h1.304v3.043H12.5zm-1.957 1.739a.218.218 0 0 1-.434 0V5.652H8.804v1.74a.218.218 0 0 1-.434 0v-1.74H7.065v1.74a1.523 1.523 0 0 0 2.392 1.247 1.513 1.513 0 0 0 1.061.261.87.87 0 0 1-.844.665v1.305a2.176 2.176 0 0 0 2.174-2.174V5.652h-1.304v1.74z"/><path d="M7.065 9.565h1.957v1.304H7.065z"/></g></g></g></g></svg><svg xmlns:xlink="http://www.w3.org/1999/xlink" width="24" height="24" id="ar-ww" y="96"><defs><circle id="ar-ww-a" cx="12" cy="12" r="10"/></defs><g fill="none" fill-rule="evenodd"><circle cx="12" cy="12" r="11.5" stroke="#AAABB6"/><mask id="ar-ww-b" fill="#fff"><use xlink:href="#ar-ww-a"/></mask><use fill="#D3D4DE" xlink:href="#ar-ww-a"/><g mask="url(#ar-ww-b)"><g transform="translate(2 2)"><circle cx="10" cy="10" r="10" fill="#007859" fill-rule="nonzero"/><path fill="#FEFEFE" d="M10 11.214c-2.625 0-2.34-2.783-1.957-3.214A2.776 2.776 0 0 0 7 10.155C7 11.726 8.343 13 10 13s3-1.274 3-2.845c0-.862-.404-1.633-1.043-2.155.383.43.668 3.214-1.957 3.214z"/><path fill="#FFF" fill-rule="nonzero" d="M10 16a6 6 0 1 0 0-12 6 6 0 0 0 0 12zm0-1a5 5 0 1 1 0-10 5 5 0 0 1 0 10z"/><circle cx="10" cy="10" r="4" stroke="#FFDA44" stroke-width=".5"/></g></g></g></svg><svg xmlns:xlink="http://www.w3.org/1999/xlink" width="24" height="24" id="cs-cz" y="120"><defs><circle id="cs-cz-a" cx="12" cy="12" r="10"/></defs><g fill="none" fill-rule="evenodd"><circle cx="12" cy="12" r="11.5" stroke="#AAABB6"/><mask id="cs-cz-b" fill="#fff"><use xlink:href="#cs-cz-a"/></mask><use fill="#D3D4DE" xlink:href="#cs-cz-a"/><g fill-rule="nonzero" mask="url(#cs-cz-b)"><g transform="translate(2 2)"><circle cx="10.019" cy="9.981" r="9.981" fill="#F0F0F0"/><path fill="#D80027" d="M9.152 9.98s-6.184 7.06-6.19 7.058a9.95 9.95 0 0 0 7.057 2.923c5.513 0 9.981-4.468 9.981-9.98H9.152z"/><path fill="#0052B4" d="M2.962 2.923c-3.897 3.898-3.897 10.217 0 14.115L10.02 9.98 2.962 2.923z"/></g></g></g></svg><svg xmlns:xlink="http://www.w3.org/1999/xlink" width="24" height="24" id="cs-sk" y="144"><defs><circle id="cs-sk-a" cx="12" cy="12" r="10"/></defs><g fill="none" fill-rule="evenodd"><circle cx="12" cy="12" r="11.5" stroke="#AAABB6"/><mask id="cs-sk-b" fill="#fff"><use xlink:href="#cs-sk-a"/></mask><use fill="#D3D4DE" xlink:href="#cs-sk-a"/><g fill-rule="nonzero" mask="url(#cs-sk-b)"><g transform="translate(2 2)"><circle cx="10" cy="10" r="10" fill="#F0F0F0"/><path fill="#0052B4" d="M10 20c5.523 0 10-4.477 10-10 0-1.223-.22-2.395-.622-3.478H.622A9.978 9.978 0 0 0 0 10c0 5.523 4.477 10 10 10z"/><path fill="#D80027" d="M10 20c4.3 0 7.965-2.714 9.378-6.522H.622A10.004 10.004 0 0 0 10 20z"/><path fill="#F0F0F0" d="M2.586 5.652v4.989c0 2.837 3.707 3.707 3.707 3.707S10 13.478 10 10.64V5.652H2.586z"/><path fill="#D80027" d="M3.455 5.652v4.989c0 .333.074.647.221.942H8.91a2.1 2.1 0 0 0 .22-.942V5.652H3.455z"/><path fill="#F0F0F0" d="M8.032 9.13H6.728v-.87h.87v-.869h-.87v-.87h-.87v.87h-.87v.87h.87v.87H4.554V10h1.304v.87h.87V10h1.304z"/><path fill="#0052B4" d="M4.862 12.797c.56.352 1.136.557 1.43.648a6.255 6.255 0 0 0 1.432-.648c.565-.355.96-.761 1.186-1.214a1.515 1.515 0 0 0-1.224-.239 1.522 1.522 0 0 0-2.786 0 1.523 1.523 0 0 0-1.224.24c.225.452.621.858 1.186 1.213z"/></g></g></g></svg><svg xmlns:xlink="http://www.w3.org/1999/xlink" width="24" height="24" id="da-dk" y="168"><defs><circle id="da-dk-a" cx="12" cy="12" r="10"/></defs><g fill="none" fill-rule="evenodd"><circle cx="12" cy="12" r="11.5" stroke="#AAABB6"/><mask id="da-dk-b" fill="#fff"><use xlink:href="#da-dk-a"/></mask><use fill="#D3D4DE" xlink:href="#da-dk-a"/><g mask="url(#da-dk-b)"><g fill-rule="nonzero" transform="translate(2 2)"><circle cx="10" cy="10" r="10" fill="#F0F0F0"/><path d="M7.826 8.696h12.09C19.275 3.789 15.08 0 10 0c-.747 0-1.474.083-2.174.238v8.458zm-2.609 0v-7.48a10.006 10.006 0 0 0-5.132 7.48h5.132zm0 2.608H.085a10.006 10.006 0 0 0 5.132 7.48v-7.48zm2.609 0v8.458c.7.155 1.427.238 2.174.238 5.08 0 9.276-3.79 9.915-8.696H7.826z" fill="#D80027"/></g></g></g></svg><svg xmlns:xlink="http://www.w3.org/1999/xlink" width="24" height="24" id="de-ch" y="192"><defs><circle id="de-ch-a" cx="12" cy="12" r="10"/></defs><g fill="none" fill-rule="evenodd"><circle cx="12" cy="12" r="11.5" stroke="#AAABB6"/><mask id="de-ch-b" fill="#fff"><use xlink:href="#de-ch-a"/></mask><use fill="#D3D4DE" xlink:href="#de-ch-a"/><g fill-rule="nonzero" mask="url(#de-ch-b)"><g transform="translate(2 2)"><circle cx="10" cy="10" r="10" fill="#D80027"/><path fill="#F0F0F0" d="M15.217 8.26H11.74V4.784H8.261V8.26H4.783v3.478H8.26v3.478h3.478V11.74h3.478z"/></g></g></g></svg><svg xmlns:xlink="http://www.w3.org/1999/xlink" width="24" height="24" id="de-de" y="216"><defs><circle id="de-de-a" cx="12" cy="12" r="10"/></defs><g fill="none" fill-rule="evenodd"><circle cx="12" cy="12" r="11.5" stroke="#AAABB6"/><mask id="de-de-b" fill="#fff"><use xlink:href="#de-de-a"/></mask><use fill="#D3D4DE" xlink:href="#de-de-a"/><g fill-rule="nonzero" mask="url(#de-de-b)"><path fill="#FFDA44" d="M2.622 15.478a10.004 10.004 0 0 0 18.756 0L12 14.608l-9.378.87z"/><path fill="#000" d="M12 2C7.7 2 4.035 4.714 2.622 8.522l9.378.87 9.378-.87A10.004 10.004 0 0 0 12 2z"/><path fill="#D80027" d="M2.622 8.522A9.979 9.979 0 0 0 2 12c0 1.223.22 2.395.622 3.478h18.756A9.979 9.979 0 0 0 22 12c0-1.223-.22-2.395-.622-3.478H2.622z"/></g></g></svg><svg xmlns:xlink="http://www.w3.org/1999/xlink" width="24" height="24" id="el-gr" y="240"><defs><circle id="el-gr-a" cx="12" cy="12" r="10"/></defs><g fill="none" fill-rule="evenodd"><circle cx="12" cy="12" r="11.5" stroke="#AAABB6"/><mask id="el-gr-b" fill="#fff"><use xlink:href="#el-gr-a"/></mask><use fill="#D3D4DE" xlink:href="#el-gr-a"/><g mask="url(#el-gr-b)"><g fill-rule="nonzero" transform="translate(2 2)"><circle cx="10" cy="10" r="10" fill="#F0F0F0"/><g fill="#338AF3"><path d="M10 7.391h9.656a9.944 9.944 0 0 0-1.124-2.608H10V7.39zM3.775 17.826h12.45a10.05 10.05 0 0 0 2.307-2.609H1.468a10.053 10.053 0 0 0 2.307 2.61zM3.478 2.42a10.049 10.049 0 0 0-2.01 2.363h2.01V2.419zM10 10V7.391H6.087V10H3.478V7.391H.344A10.011 10.011 0 0 0 0 10c0 .903.12 1.777.344 2.609h19.312A10.02 10.02 0 0 0 20 10H10z"/><path d="M10 0a9.969 9.969 0 0 0-3.913.795v3.988H10v-2.61h6.225A9.957 9.957 0 0 0 10 0z"/></g></g></g></g></svg><svg xmlns:xlink="http://www.w3.org/1999/xlink" width="24" height="24" id="en-ae" y="264"><defs><circle id="en-ae-a" cx="12" cy="12" r="10"/></defs><g fill="none" fill-rule="evenodd"><circle cx="12" cy="12" r="11.5" stroke="#AAABB6"/><mask id="en-ae-b" fill="#fff"><use xlink:href="#en-ae-a"/></mask><use fill="#D3D4DE" xlink:href="#en-ae-a"/><g fill-rule="nonzero" mask="url(#en-ae-b)"><g transform="translate(2 2)"><circle cx="10" cy="10" r="10" fill="#F0F0F0"/><path fill="#000" d="M5.652 13.478l.87 5.9a10.003 10.003 0 0 0 12.856-5.9H5.652z"/><path fill="#6DA544" d="M5.652 6.522l.87-5.9a10.003 10.003 0 0 1 12.856 5.9H5.652z"/><path fill="#A2001D" d="M0 10c0 4.3 2.714 7.965 6.522 9.378V.622A10.004 10.004 0 0 0 0 10z"/></g></g></g></svg><svg xmlns:xlink="http://www.w3.org/1999/xlink" width="24" height="24" id="en-au" y="288"><defs><circle id="en-au-a" cx="12" cy="12" r="10"/></defs><g fill="none" fill-rule="evenodd"><circle cx="12" cy="12" r="11.5" stroke="#AAABB6"/><mask id="en-au-b" fill="#fff"><use xlink:href="#en-au-a"/></mask><use fill="#D3D4DE" xlink:href="#en-au-a"/><g fill-rule="nonzero" mask="url(#en-au-b)"><path fill="#0052B4" d="M22 12.04c0 5.522-4.477 10-10 10s-10-4.478-10-10l10-10c5.523 0 10 4.476 10 10z"/><path d="M12.032 2.07h-.005.005zm-.049 10.02h.068v-.068l-.068.068zM12 7.256V2.04h-.002C6.476 2.04 2 6.517 2 12.04h5.217V9.101l2.938 2.938h1.818l.027-.027v-1.818L9.062 7.256H12z" fill="#F0F0F0"/><g fill="#D80027"><path d="M7.06 3.343a10.048 10.048 0 0 0-3.756 3.755v4.941h2.609V5.952H12V3.343H7.06z"/><path d="M12 10.81L8.447 7.256h-1.23L12 12.039v-1.23z"/></g><path d="M8.031 13.778l.549 1.148 1.24-.287-.556 1.145.997.79-1.241.28.003 1.272-.992-.796-.992.796.003-1.272-1.24-.28.996-.79-.555-1.145 1.24.287zm8.941 2.174l.274.574.62-.143-.277.572.498.395-.62.14.001.636-.496-.398-.496.398.002-.636-.62-.14.497-.395-.277-.572.62.143zM14.42 9.865l.274.574.62-.143-.278.572.498.395-.62.14.001.636-.496-.398-.496.398.002-.636-.62-.14.498-.395-.278-.572.62.143zm2.552-3.478l.274.574.62-.144-.277.573.498.395-.62.14.001.636-.496-.398-.496.398.002-.636-.62-.14.497-.395-.277-.573.62.144zm2.23 2.609l.274.573.62-.143-.278.572.499.396-.62.14.001.635-.496-.397-.496.397.001-.635-.62-.14.498-.396-.277-.572.62.143zm-1.595 3.044l.216.663h.699l-.565.41.216.665-.566-.41-.565.41.216-.664-.565-.41h.699z" fill="#F0F0F0"/></g></g></svg><svg xmlns:xlink="http://www.w3.org/1999/xlink" width="24" height="24" id="en-ca" y="312"><defs><circle id="en-ca-a" cx="12" cy="12" r="10"/></defs><g fill="none" fill-rule="evenodd"><circle cx="12" cy="12" r="11.5" stroke="#AAABB6"/><mask id="en-ca-b" fill="#fff"><use xlink:href="#en-ca-a"/></mask><use fill="#D3D4DE" xlink:href="#en-ca-a"/><g mask="url(#en-ca-b)"><g fill-rule="nonzero" transform="translate(2 2)"><circle cx="10" cy="10" r="10" fill="#F0F0F0"/><path d="M20 10A10 10 0 0 0 14.348.992v18.016A10 10 0 0 0 20 10zM0 10a10 10 0 0 0 5.652 9.008V.992A10 10 0 0 0 0 10zm11.74 1.304l1.738-.87-.87-.434v-.87L10.87 10l.87-1.74h-.87L10 6.958 9.13 8.26h-.87L9.13 10l-1.739-.87V10l-.87.435 1.74.87-.435.869h1.74v1.304h.869v-1.304h1.739z" fill="#D80027"/></g></g></g></svg><svg xmlns:xlink="http://www.w3.org/1999/xlink" width="24" height="24" id="en-nz" y="336"><defs><circle id="en-nz-a" cx="12" cy="12" r="10"/></defs><g fill="none" fill-rule="evenodd"><circle cx="12" cy="12" r="11.5" stroke="#AAABB6"/><mask id="en-nz-b" fill="#fff"><use xlink:href="#en-nz-a"/></mask><use fill="#D3D4DE" xlink:href="#en-nz-a"/><g fill-rule="nonzero" mask="url(#en-nz-b)"><path fill="#0052B4" d="M22 12.02C22 17.531 17.523 22 12 22S2 17.532 2 12.02c0 .002 10-9.98 10-9.981 5.523 0 10 4.468 10 9.98z"/><path d="M12.032 2.072h-.005.005zm-.049 10.003h.068v-.072a22.71 22.71 0 0 1-.068.072zM12 7.246V2.04h-.002C6.476 2.039 2 6.508 2 12.019h5.217V9.087l2.938 2.932h1.818c.01-.008.018-.017.027-.026v-1.815L9.062 7.246H12z" fill="#F0F0F0"/><g fill="#D80027"><path d="M7.06 3.34a10.038 10.038 0 0 0-3.756 3.748v4.931h2.609V5.944H12V3.341H7.06z"/><path d="M12 10.792L8.447 7.246h-1.23L12 12.02v-1.227zm7.318-1.347l.215.663h.699l-.565.41.216.663-.565-.41-.566.41.216-.663-.565-.41h.699zm-2.498 4.773l.325.995h1.047l-.847.614.323.995-.847-.615-.848.615.324-.995-.848-.614h1.048zm.095-7.811l.27.83h.873l-.706.511.27.829-.707-.512-.706.512.27-.829-.707-.512h.873zm-2.402 3.009l.323.994h1.048l-.848.615.324.994-.847-.614-.848.614.324-.994-.848-.615h1.048z"/></g></g></g></svg><svg xmlns:xlink="http://www.w3.org/1999/xlink" width="24" height="24" id="en-uk" y="360"><defs><circle id="en-uk-a" cx="12" cy="12" r="10"/></defs><g fill="none" fill-rule="evenodd"><circle cx="12" cy="12" r="11.5" stroke="#AAABB6"/><mask id="en-uk-b" fill="#fff"><use xlink:href="#en-uk-a"/></mask><use fill="#D3D4DE" xlink:href="#en-uk-a"/><g mask="url(#en-uk-b)"><g fill-rule="nonzero" transform="translate(2 2)"><circle cx="10" cy="10" r="10" fill="#F0F0F0"/><path d="M2.067 3.912a9.964 9.964 0 0 0-1.723 3.48h5.203l-3.48-3.48zm17.589 3.479a9.964 9.964 0 0 0-1.723-3.48l-3.48 3.48h5.203zM.344 12.609a9.965 9.965 0 0 0 1.723 3.48l3.48-3.48H.344zM16.088 2.067a9.964 9.964 0 0 0-3.48-1.723v5.203l3.48-3.48zM3.912 17.933a9.964 9.964 0 0 0 3.48 1.723v-5.203l-3.48 3.48zM7.391.344a9.965 9.965 0 0 0-3.48 1.723l3.48 3.48V.344zm5.218 19.312a9.965 9.965 0 0 0 3.48-1.723l-3.48-3.48v5.203zm1.844-7.047l3.48 3.48a9.964 9.964 0 0 0 1.723-3.48h-5.203z" fill="#0052B4"/><g fill="#D80027"><path d="M19.915 8.696h-8.61V.085a10.1 10.1 0 0 0-2.61 0v8.61H.086a10.1 10.1 0 0 0 0 2.61h8.61v8.61a10.099 10.099 0 0 0 2.61 0v-8.61h8.61a10.099 10.099 0 0 0 0-2.61z"/><path d="M12.609 12.609l4.462 4.462c.205-.205.401-.42.588-.642l-3.82-3.82h-1.23zm-5.218 0L2.93 17.07c.205.205.42.401.642.588l3.82-3.82v-1.23zm0-5.218L2.93 2.93c-.205.205-.401.42-.588.642l3.82 3.82h1.23zm5.218 0L17.07 2.93a10.21 10.21 0 0 0-.642-.588l-3.82 3.82v1.23z"/></g></g></g></g></svg><svg xmlns:xlink="http://www.w3.org/1999/xlink" width="24" height="24" id="en-us" y="384"><defs><circle id="en-us-a" cx="12" cy="12" r="10"/></defs><g fill="none" fill-rule="evenodd"><circle cx="12" cy="12" r="11.5" stroke="#AAABB6"/><mask id="en-us-b" fill="#fff"><use xlink:href="#en-us-a"/></mask><use fill="#D3D4DE" xlink:href="#en-us-a"/><g mask="url(#en-us-b)"><g fill-rule="nonzero" transform="translate(2 2)"><circle cx="10" cy="10" r="10" fill="#F0F0F0"/><path d="M9.565 10H20c0-.903-.12-1.777-.344-2.609H9.566V10zm0-5.217h8.967a10.053 10.053 0 0 0-2.307-2.61h-6.66v2.61zM10 20a9.957 9.957 0 0 0 6.225-2.174H3.775A9.957 9.957 0 0 0 10 20zm-8.532-4.783h17.064a9.94 9.94 0 0 0 1.124-2.608H.344a9.94 9.94 0 0 0 1.124 2.608z" fill="#D80027"/><path fill="#0052B4" d="M4.632 1.562h.911l-.847.615.324.997-.848-.616-.848.616.28-.86c-.746.62-1.4 1.35-1.94 2.16h.293l-.54.393c-.084.14-.165.282-.242.427l.258.793-.481-.35a9.81 9.81 0 0 0-.327.777l.284.874h1.048l-.848.616.324.996-.848-.616-.508.37C.027 9.161 0 9.577 0 10h10V0a9.953 9.953 0 0 0-5.368 1.562zM5.02 9l-.848-.616L3.324 9l.324-.996-.847-.616h1.047l.324-.997.324.997h1.047l-.847.616L5.02 9zm-.324-3.91l.324.997-.848-.616-.848.616.324-.996-.847-.616h1.047l.324-.997.324.997h1.047l-.847.616zM8.606 9l-.847-.616L6.91 9l.324-.996-.848-.616h1.048l.324-.997.324.997H9.13l-.847.616.324.996zm-.323-3.91l.324.997-.848-.616-.848.616.324-.996-.848-.616h1.048l.324-.997.324.997H9.13l-.847.616zm0-2.913l.324.997-.848-.616-.848.616.324-.997-.848-.615h1.048L7.76.565l.324.997H9.13l-.847.615z"/></g></g></g></svg><svg xmlns:xlink="http://www.w3.org/1999/xlink" width="24" height="24" id="en-za" y="408"><defs><circle id="en-za-a" cx="12" cy="12" r="10"/></defs><g fill="none" fill-rule="evenodd"><circle cx="12" cy="12" r="11.5" stroke="#AAABB6"/><mask id="en-za-b" fill="#fff"><use xlink:href="#en-za-a"/></mask><use fill="#D3D4DE" xlink:href="#en-za-a"/><g fill-rule="nonzero" mask="url(#en-za-b)"><g transform="translate(2 2)"><ellipse cx="10.019" cy="10" fill="#F0F0F0" rx="9.981" ry="10"/><path fill="#000" d="M2.962 17.071c-3.897-3.905-3.897-10.237 0-14.142L8.718 10l-5.756 7.071z"/><path fill="#FFDA44" d="M8.718 10L1.363 5.02a9.92 9.92 0 0 0-.602 1.24L4.484 10 .761 13.74c.173.428.373.842.601 1.24L8.718 10z"/><path fill="#6DA544" d="M19.916 8.696H8.717L2.962 2.929a10.037 10.037 0 0 0-1.6 2.091L6.324 10l-4.96 4.98c.44.766.979 1.47 1.6 2.09l5.754-5.766h11.199a10.118 10.118 0 0 0 0-2.608z"/><path fill="#0052B4" d="M3.943 17.933A9.924 9.924 0 0 0 10.019 20c4.612 0 8.492-3.134 9.637-7.391h-10.4l-5.313 5.324z"/><path fill="#D80027" d="M19.656 7.391C18.511 3.134 14.631 0 10.02 0a9.924 9.924 0 0 0-6.076 2.067l5.314 5.324h10.4z"/></g></g></g></svg><svg xmlns:xlink="http://www.w3.org/1999/xlink" width="24" height="24" id="es-ar" y="432"><defs><circle id="es-ar-a" cx="12" cy="12" r="10"/></defs><g fill="none" fill-rule="evenodd"><circle cx="12" cy="12" r="11.5" stroke="#AAABB6"/><mask id="es-ar-b" fill="#fff"><use xlink:href="#es-ar-a"/></mask><use fill="#D3D4DE" xlink:href="#es-ar-a"/><g mask="url(#es-ar-b)"><g fill-rule="nonzero" transform="translate(2 2)"><circle cx="10" cy="10" r="10" fill="#F0F0F0"/><path d="M10 0A10 10 0 0 0 .992 5.652h18.016A10 10 0 0 0 10 0zm0 20a10 10 0 0 0 9.008-5.652H.992A10 10 0 0 0 10 20z" fill="#338AF3"/><path fill="#FFDA44" d="M12.989 10l-1.221.574.65 1.183-1.326-.253-.168 1.34-.924-.986-.924.985-.168-1.34-1.326.254.65-1.183L7.012 10l1.22-.574-.65-1.183 1.326.253.168-1.34.924.986.924-.985.168 1.34 1.326-.254-.65 1.183z"/></g></g></g></svg><svg xmlns:xlink="http://www.w3.org/1999/xlink" width="24" height="24" id="es-cl" y="456"><defs><circle id="es-cl-a" cx="12" cy="12" r="10"/></defs><g fill="none" fill-rule="evenodd"><circle cx="12" cy="12" r="11.5" stroke="#AAABB6"/><mask id="es-cl-b" fill="#fff"><use xlink:href="#es-cl-a"/></mask><use fill="#D3D4DE" xlink:href="#es-cl-a"/><g fill-rule="nonzero" mask="url(#es-cl-b)"><g transform="translate(2 2)"><circle cx="10" cy="10" r="10" fill="#F0F0F0"/><path fill="#D80027" d="M20 10c0 5.523-4.477 10-10 10S0 15.523 0 10s10 0 10 0h10z"/><path fill="#0052B4" d="M0 10C0 4.477 4.477 0 10 0v10H0z"/><path fill="#F0F0F0" d="M5.953 3.478L6.6 5.471h2.096L7 6.703l.648 1.993-1.695-1.232-1.696 1.232.648-1.993L3.21 5.47h2.095z"/></g></g></g></svg><svg xmlns:xlink="http://www.w3.org/1999/xlink" width="24" height="24" id="es-co" y="480"><defs><circle id="es-co-a" cx="12" cy="12" r="10"/></defs><g fill="none" fill-rule="evenodd"><circle cx="12" cy="12" r="11.5" stroke="#AAABB6"/><mask id="es-co-b" fill="#fff"><use xlink:href="#es-co-a"/></mask><use fill="#D3D4DE" xlink:href="#es-co-a"/><g fill-rule="nonzero" mask="url(#es-co-b)"><path fill="#FFDA44" d="M2 12C2 6.477 6.477 2 12 2s10 4.477 10 10l-10 .87L2 12z"/><path fill="#D80027" d="M3.338 17c1.73 2.989 4.96 5 8.662 5a9.996 9.996 0 0 0 8.662-5L12 16.348 3.338 17z"/><path fill="#0052B4" d="M20.662 17A9.954 9.954 0 0 0 22 12H2c0 1.822.487 3.53 1.338 5h17.324z"/></g></g></svg><svg xmlns:xlink="http://www.w3.org/1999/xlink" width="24" height="24" id="es-es" y="504"><defs><circle id="es-es-a" cx="12" cy="12" r="10"/></defs><g fill="none" fill-rule="evenodd"><circle cx="12" cy="12" r="11.5" stroke="#AAABB6"/><mask id="es-es-b" fill="#fff"><use xlink:href="#es-es-a"/></mask><use fill="#D3D4DE" xlink:href="#es-es-a"/><g fill-rule="nonzero" mask="url(#es-es-b)"><path fill="#FFDA44" d="M2 12c0 1.223.22 2.395.622 3.478l9.378.87 9.378-.87A9.979 9.979 0 0 0 22 12c0-1.223-.22-2.395-.622-3.478L12 7.652l-9.378.87A9.979 9.979 0 0 0 2 12z"/><path d="M21.378 8.522a10.004 10.004 0 0 0-18.756 0h18.756zM2.622 15.478a10.004 10.004 0 0 0 18.756 0H2.622z" fill="#D80027"/></g></g></svg><svg xmlns:xlink="http://www.w3.org/1999/xlink" width="24" height="24" id="es-mx" y="528"><defs><circle id="es-mx-a" cx="12" cy="12" r="10"/></defs><g fill="none" fill-rule="evenodd"><circle cx="12" cy="12" r="11.5" stroke="#AAABB6"/><mask id="es-mx-b" fill="#fff"><use xlink:href="#es-mx-a"/></mask><use fill="#D3D4DE" xlink:href="#es-mx-a"/><g mask="url(#es-mx-b)"><g fill-rule="nonzero" transform="translate(2 2)"><circle cx="10" cy="10" r="10" fill="#F0F0F0"/><path fill="#D80027" d="M20 10A10 10 0 0 0 14.348.992v18.016A10 10 0 0 0 20 10z"/><path d="M0 10a10 10 0 0 0 5.652 9.008V.992A10 10 0 0 0 0 10zm7.391 0a2.609 2.609 0 0 0 5.218 0v-.87H7.39V10z" fill="#6DA544"/><path fill="#FF9811" d="M13.478 8.26H10.87a.87.87 0 0 0-1.74 0H6.522c0 .481.418.87.898.87h-.029c0 .48.39.87.87.87 0 .48.39.87.87.87h1.739c.48 0 .87-.39.87-.87a.87.87 0 0 0 .869-.87h-.03c.481 0 .9-.389.9-.87z"/></g></g></g></svg><svg xmlns:xlink="http://www.w3.org/1999/xlink" width="24" height="24" id="fi-fi" y="552"><defs><circle id="fi-fi-a" cx="12" cy="12" r="10"/></defs><g fill="none" fill-rule="evenodd"><circle cx="12" cy="12" r="11.5" stroke="#AAABB6"/><mask id="fi-fi-b" fill="#fff"><use xlink:href="#fi-fi-a"/></mask><use fill="#D3D4DE" xlink:href="#fi-fi-a"/><g fill-rule="nonzero" mask="url(#fi-fi-b)"><g transform="translate(2 2)"><circle cx="10" cy="10" r="10" fill="#F0F0F0"/><path fill="#0052B4" d="M19.915 8.696H7.826V.238a9.95 9.95 0 0 0-2.609.978v7.48H.085a10.086 10.086 0 0 0 0 2.608h5.132v7.48a9.932 9.932 0 0 0 2.61.978v-8.458h12.088a10.1 10.1 0 0 0 0-2.608z"/></g></g></g></svg><svg xmlns:xlink="http://www.w3.org/1999/xlink" width="24" height="24" id="fr-fr" y="576"><defs><circle id="fr-fr-a" cx="12" cy="12" r="10"/></defs><g fill="none" fill-rule="evenodd"><circle cx="12" cy="12" r="11.5" stroke="#AAABB6"/><mask id="fr-fr-b" fill="#fff"><use xlink:href="#fr-fr-a"/></mask><use fill="#D3D4DE" xlink:href="#fr-fr-a"/><g fill-rule="nonzero" mask="url(#fr-fr-b)"><g transform="translate(2 2)"><circle cx="10" cy="10" r="10" fill="#F0F0F0"/><path fill="#D80027" d="M20 10c0-4.3-2.714-7.965-6.522-9.378v18.756A10.004 10.004 0 0 0 20 10z"/><path fill="#0052B4" d="M0 10c0 4.3 2.714 7.965 6.522 9.378V.622A10.004 10.004 0 0 0 0 10z"/></g></g></g></svg><svg xmlns:xlink="http://www.w3.org/1999/xlink" width="24" height="24" id="he-il" y="600"><defs><circle id="he-il-a" cx="12" cy="12" r="10"/></defs><g fill="none" fill-rule="evenodd"><circle cx="12" cy="12" r="11.5" stroke="#AAABB6"/><mask id="he-il-b" fill="#fff"><use xlink:href="#he-il-a"/></mask><use fill="#D3D4DE" xlink:href="#he-il-a"/><g mask="url(#he-il-b)"><g fill-rule="nonzero" transform="translate(2 2)"><circle cx="10" cy="10" r="10" fill="#F0F0F0"/><path d="M13.765 7.826h-2.51L10 5.652 8.745 7.826h-2.51L7.49 10l-1.255 2.174h2.51L10 14.348l1.255-2.174h2.51L12.51 10l1.255-2.174zM11.542 10l-.77 1.335H9.228L8.458 10l.771-1.335h1.542L11.542 10zM10 7.329l.287.497h-.574L10 7.33zM7.687 8.665h.574l-.287.497-.287-.497zm0 2.67l.287-.497.287.497h-.574zM10 12.671l-.287-.497h.574L10 12.67zm2.313-1.336h-.574l.287-.497.287.497zm-.574-2.67h.574l-.287.497-.287-.497zm4.486-6.491H3.775a10.05 10.05 0 0 0-2.307 2.609h17.064a10.053 10.053 0 0 0-2.307-2.61zM3.775 17.826h12.45a10.05 10.05 0 0 0 2.307-2.609H1.468a10.053 10.053 0 0 0 2.307 2.61z" fill="#0052B4"/></g></g></g></svg><svg xmlns:xlink="http://www.w3.org/1999/xlink" width="24" height="24" id="hi-in" y="624"><defs><circle id="hi-in-a" cx="12" cy="12" r="10"/></defs><g fill="none" fill-rule="evenodd"><circle cx="12" cy="12" r="11.5" stroke="#AAABB6"/><mask id="hi-in-b" fill="#fff"><use xlink:href="#hi-in-a"/></mask><use fill="#D3D4DE" xlink:href="#hi-in-a"/><g fill-rule="nonzero" mask="url(#hi-in-b)"><g transform="translate(2 2)"><circle cx="10" cy="10" r="10" fill="#F0F0F0"/><path fill="#FF9811" d="M10 0A10 10 0 0 0 .992 5.652h18.016A10 10 0 0 0 10 0z"/><path fill="#6DA544" d="M10 20a10 10 0 0 0 9.008-5.652H.992A10 10 0 0 0 10 20z"/><circle cx="10" cy="10" r="3.478" fill="#0052B4"/><circle cx="10" cy="10" r="2.174" fill="#F0F0F0"/><path fill="#0052B4" d="M10 7.317l.67 1.521 1.653-.18L11.341 10l.982 1.341-1.652-.18L10 12.684l-.67-1.521-1.653.18L8.659 10l-.982-1.341 1.652.18z"/></g></g></g></svg><svg xmlns:xlink="http://www.w3.org/1999/xlink" width="24" height="24" id="hu-hu" y="648"><defs><circle id="hu-hu-a" cx="12" cy="12" r="10"/></defs><g fill="none" fill-rule="evenodd"><circle cx="12" cy="12" r="11.5" stroke="#AAABB6"/><mask id="hu-hu-b" fill="#fff"><use xlink:href="#hu-hu-a"/></mask><use fill="#D3D4DE" xlink:href="#hu-hu-a"/><g fill-rule="nonzero" mask="url(#hu-hu-b)"><path fill="#F0F0F0" d="M2.622 8.522A9.979 9.979 0 0 0 2 12c0 1.223.22 2.395.622 3.478l9.378.87 9.378-.87A9.978 9.978 0 0 0 22 12c0-1.223-.22-2.395-.622-3.478L12 7.652l-9.378.87z"/><path fill="#D80027" d="M12 2C7.7 2 4.035 4.714 2.622 8.522h18.756A10.004 10.004 0 0 0 12 2z"/><path fill="#6DA544" d="M12 22c4.3 0 7.965-2.714 9.378-6.522H2.622A10.003 10.003 0 0 0 12 22z"/></g></g></svg><svg xmlns:xlink="http://www.w3.org/1999/xlink" width="24" height="24" id="id-id" y="672"><defs><circle id="id-id-a" cx="12" cy="12" r="10"/></defs><g fill="none" fill-rule="evenodd"><circle cx="12" cy="12" r="11.5" stroke="#AAABB6"/><mask id="id-id-b" fill="#fff"><use xlink:href="#id-id-a"/></mask><use fill="#D3D4DE" xlink:href="#id-id-a"/><g fill-rule="nonzero" mask="url(#id-id-b)"><g transform="translate(2 2)"><circle cx="10" cy="10" r="10" fill="#F0F0F0"/><path fill="#A2001D" d="M0 10C0 4.477 4.477 0 10 0s10 4.477 10 10"/></g></g></g></svg><svg xmlns:xlink="http://www.w3.org/1999/xlink" width="24" height="24" id="it-it" y="696"><defs><circle id="it-it-a" cx="12" cy="12" r="10"/></defs><g fill="none" fill-rule="evenodd"><circle cx="12" cy="12" r="11.5" stroke="#AAABB6"/><mask id="it-it-b" fill="#fff"><use xlink:href="#it-it-a"/></mask><use fill="#D3D4DE" xlink:href="#it-it-a"/><g fill-rule="nonzero" mask="url(#it-it-b)"><g transform="translate(2 2)"><circle cx="10" cy="10" r="10" fill="#F0F0F0"/><path fill="#D80027" d="M20 10c0-4.3-2.714-7.965-6.522-9.378v18.756A10.004 10.004 0 0 0 20 10z"/><path fill="#6DA544" d="M0 10c0 4.3 2.714 7.965 6.522 9.378V.622A10.004 10.004 0 0 0 0 10z"/></g></g></g></svg><svg xmlns:xlink="http://www.w3.org/1999/xlink" width="24" height="24" id="jp" y="720"><defs><circle id="jp-a" cx="12" cy="12" r="10"/></defs><g fill="none" fill-rule="evenodd"><circle cx="12" cy="12" r="11.5" stroke="#AAABB6"/><mask id="jp-b" fill="#fff"><use xlink:href="#jp-a"/></mask><use fill="#D3D4DE" xlink:href="#jp-a"/><g fill-rule="nonzero" mask="url(#jp-b)"><g transform="translate(2 2)"><circle cx="10" cy="10" r="10" fill="#F0F0F0"/><circle cx="10" cy="10" r="4.348" fill="#D80027"/></g></g></g></svg><svg xmlns:xlink="http://www.w3.org/1999/xlink" width="24" height="24" id="ko-kr" y="744"><defs><circle id="ko-kr-a" cx="12" cy="12" r="10"/></defs><g fill="none" fill-rule="evenodd"><circle cx="12" cy="12" r="11.5" stroke="#AAABB6"/><mask id="ko-kr-b" fill="#fff"><use xlink:href="#ko-kr-a"/></mask><use fill="#D3D4DE" xlink:href="#ko-kr-a"/><g fill-rule="nonzero" mask="url(#ko-kr-b)"><g transform="translate(2 2)"><circle cx="10" cy="10" r="10" fill="#F0F0F0"/><path fill="#D80027" d="M13.478 10c0 .87-1.557 3.043-3.478 3.043-1.921 0-3.478-2.173-3.478-3.043a3.478 3.478 0 1 1 6.956 0z"/><path fill="#0052B4" d="M13.478 10a3.478 3.478 0 1 1-6.956 0"/><path fill="#000" d="M13.69 13.074l.921-.922.615.615-.922.922zm-1.538 1.538l.922-.923.615.615-.922.923zm3.382.307l.922-.923.615.615-.922.923zm-1.537 1.537l.922-.922.615.615-.923.922zm.615-2.459l.922-.923.615.615-.923.922zm-1.537 1.537l.922-.922.615.614-.923.923zm2.459-8.609l-2.46-2.46.616-.614 2.46 2.46zm-2.459-.615l-.923-.921.615-.615.923.922zm1.537 1.538l-.923-.922.615-.615.923.922zm.307-3.382l-.923-.922.615-.615.922.922zm1.537 1.537l-.922-.922.615-.615.922.923zM3.544 13.997l2.46 2.46-.616.614-2.459-2.46zm2.459.614l.922.923-.614.614-.923-.922zm-1.537-1.537l.922.923-.615.615-.922-.923zm.922-.922l2.46 2.46-.615.614-2.46-2.46zm.615-8.608l-2.46 2.46-.614-.616 2.46-2.46zm.922.922l-2.46 2.46-.614-.616 2.46-2.459zm.923.923l-2.46 2.459-.614-.615 2.46-2.46z"/></g></g></g></svg><svg xmlns:xlink="http://www.w3.org/1999/xlink" width="24" height="24" id="ms-my" y="768"><defs><circle id="ms-my-a" cx="12" cy="12" r="10"/></defs><g fill="none" fill-rule="evenodd"><circle cx="12" cy="12" r="11.5" stroke="#AAABB6"/><mask id="ms-my-b" fill="#fff"><use xlink:href="#ms-my-a"/></mask><use fill="#D3D4DE" xlink:href="#ms-my-a"/><g mask="url(#ms-my-b)"><g fill-rule="nonzero" transform="translate(2 2)"><circle cx="10" cy="10" r="10" fill="#F0F0F0"/><path d="M9.565 10H20c0-.903-.12-1.777-.344-2.609H9.566V10zm0-5.217h8.967a10.052 10.052 0 0 0-2.307-2.61h-6.66v2.61zM10 20a9.957 9.957 0 0 0 6.225-2.174H3.775A9.957 9.957 0 0 0 10 20zm-8.532-4.783h17.064a9.941 9.941 0 0 0 1.124-2.608H.344a9.94 9.94 0 0 0 1.124 2.608z" fill="#D80027"/><path fill="#0052B4" d="M10 10V0C4.477 0 0 4.477 0 10h10z"/><g fill="#FFDA44"><path d="M6.65 8.56a2.473 2.473 0 1 1 1.176-4.65 3.044 3.044 0 1 0 0 4.351c-.35.19-.75.298-1.176.298z"/><path d="M7.347 4.348l.439.918.991-.23-.444.916.797.633-.992.223.002 1.018-.793-.637-.794.637.002-1.018-.992-.223.797-.633-.444-.915.992.229z"/></g></g></g></g></svg><svg xmlns:xlink="http://www.w3.org/1999/xlink" width="24" height="24" id="nl-be" y="792"><defs><circle id="nl-be-a" cx="12" cy="12" r="10"/></defs><g fill="none" fill-rule="evenodd"><circle cx="12" cy="12" r="11.5" stroke="#AAABB6"/><mask id="nl-be-b" fill="#fff"><use xlink:href="#nl-be-a"/></mask><use fill="#D3D4DE" xlink:href="#nl-be-a"/><g fill-rule="nonzero" mask="url(#nl-be-b)"><path fill="#FFDA44" d="M15.478 2.622A9.979 9.979 0 0 0 12 2c-1.223 0-2.395.22-3.478.622L7.652 12l.87 9.378A9.978 9.978 0 0 0 12 22c1.223 0 2.395-.22 3.478-.622l.87-9.378-.87-9.378z"/><path fill="#D80027" d="M22 12c0-4.3-2.714-7.965-6.522-9.378v18.756A10.004 10.004 0 0 0 22 12z"/><path fill="#000" d="M2 12c0 4.3 2.714 7.965 6.522 9.378V2.622A10.003 10.003 0 0 0 2 12z"/></g></g></svg><svg xmlns:xlink="http://www.w3.org/1999/xlink" width="24" height="24" id="nl-nl" y="816"><defs><circle id="nl-nl-a" cx="12" cy="12" r="10"/></defs><g fill="none" fill-rule="evenodd"><circle cx="12" cy="12" r="11.5" stroke="#AAABB6"/><mask id="nl-nl-b" fill="#fff"><use xlink:href="#nl-nl-a"/></mask><use fill="#D3D4DE" xlink:href="#nl-nl-a"/><g fill-rule="nonzero" mask="url(#nl-nl-b)"><g transform="translate(2 2)"><circle cx="10" cy="10" r="10" fill="#F0F0F0"/><path fill="#A2001D" d="M10 0C5.7 0 2.035 2.714.622 6.522h18.756A10.004 10.004 0 0 0 10 0z"/><path fill="#0052B4" d="M10 20c4.3 0 7.965-2.714 9.378-6.522H.622A10.004 10.004 0 0 0 10 20z"/></g></g></g></svg><svg xmlns:xlink="http://www.w3.org/1999/xlink" width="24" height="24" id="no-no" y="840"><defs><circle id="no-no-a" cx="12" cy="12" r="10"/></defs><g fill="none" fill-rule="evenodd"><circle cx="12" cy="12" r="11.5" stroke="#AAABB6"/><mask id="no-no-b" fill="#fff"><use xlink:href="#no-no-a"/></mask><use fill="#D3D4DE" xlink:href="#no-no-a"/><g mask="url(#no-no-b)"><g fill-rule="nonzero" transform="translate(2 2)"><circle cx="10" cy="10" r="10" fill="#F0F0F0"/><path d="M.344 12.609a10.008 10.008 0 0 0 3.569 5.325v-5.325H.344zm8.786 7.353c.287.025.577.038.87.038 4.62 0 8.508-3.134 9.656-7.391H9.13v7.353zM19.656 7.391C18.508 3.134 14.62 0 10 0c-.293 0-.583.013-.87.038v7.353h10.526zM3.913 2.066A10.009 10.009 0 0 0 .344 7.391h3.569V2.066z" fill="#D80027"/><path fill="#0052B4" d="M19.915 8.696H7.826V.238a9.95 9.95 0 0 0-2.609.978v7.48H.085a10.086 10.086 0 0 0 0 2.608h5.132v7.48a9.932 9.932 0 0 0 2.61.978v-8.458h12.088a10.1 10.1 0 0 0 0-2.608z"/></g></g></g></svg><svg xmlns:xlink="http://www.w3.org/1999/xlink" width="24" height="24" id="pl-pl" y="864"><defs><circle id="pl-pl-a" cx="12" cy="12" r="10"/></defs><g fill="none" fill-rule="evenodd"><circle cx="12" cy="12" r="11.5" stroke="#AAABB6"/><mask id="pl-pl-b" fill="#fff"><use xlink:href="#pl-pl-a"/></mask><use fill="#D3D4DE" xlink:href="#pl-pl-a"/><g fill-rule="nonzero" mask="url(#pl-pl-b)"><g transform="translate(2 2)"><circle cx="10" cy="10" r="10" fill="#F0F0F0"/><path fill="#D80027" d="M20 10c0 5.523-4.477 10-10 10S0 15.523 0 10"/></g></g></g></svg><svg xmlns:xlink="http://www.w3.org/1999/xlink" width="24" height="24" id="pt-br" y="888"><defs><circle id="pt-br-a" cx="12" cy="12" r="10"/></defs><g fill="none" fill-rule="evenodd"><circle cx="12" cy="12" r="11.5" stroke="#AAABB6"/><mask id="pt-br-b" fill="#fff"><use xlink:href="#pt-br-a"/></mask><use fill="#D3D4DE" xlink:href="#pt-br-a"/><g mask="url(#pt-br-b)"><g fill-rule="nonzero" transform="translate(2 2)"><circle cx="10" cy="10" r="10" fill="#6DA544"/><path fill="#FFDA44" d="M10 3.913L18.26 10 10 16.087 1.74 10z"/><circle cx="10" cy="10" r="3.478" fill="#F0F0F0"/><path d="M8.26 9.783c-.604 0-1.188.092-1.737.262a3.478 3.478 0 0 0 6.325 1.95 5.861 5.861 0 0 0-4.587-2.212zm5.154.883a3.478 3.478 0 0 0-6.61-2.04 7.175 7.175 0 0 1 6.61 2.04z" fill="#0052B4"/></g></g></g></svg><svg xmlns:xlink="http://www.w3.org/1999/xlink" width="24" height="24" id="pt-pt" y="912"><defs><circle id="pt-pt-a" cx="12" cy="12" r="10"/></defs><g fill="none" fill-rule="evenodd"><circle cx="12" cy="12" r="11.5" stroke="#AAABB6"/><mask id="pt-pt-b" fill="#fff"><use xlink:href="#pt-pt-a"/></mask><use fill="#D3D4DE" xlink:href="#pt-pt-a"/><g fill-rule="nonzero" mask="url(#pt-pt-b)"><g transform="translate(2 2)"><path fill="#6DA544" d="M0 10c0 4.3 2.714 7.965 6.522 9.378L7.392 10 6.521.622A10.004 10.004 0 0 0 0 10z"/><path fill="#D80027" d="M20 10c0-5.523-4.477-10-10-10a9.98 9.98 0 0 0-3.478.622v18.756A9.978 9.978 0 0 0 10 20c5.523 0 10-4.477 10-10z"/><circle cx="6.522" cy="10" r="3.478" fill="#FFDA44"/><path fill="#D80027" d="M4.565 8.26v2.175a1.957 1.957 0 1 0 3.913 0V8.26H4.565z"/><path fill="#F0F0F0" d="M6.522 11.087a.653.653 0 0 1-.652-.652v-.87h1.304v.87c0 .36-.293.652-.652.652z"/></g></g></g></svg><svg xmlns:xlink="http://www.w3.org/1999/xlink" width="24" height="24" id="ru-kz" y="936"><defs><circle id="ru-kz-a" cx="12" cy="12" r="10"/></defs><g fill="none" fill-rule="evenodd"><circle cx="12" cy="12" r="11.5" stroke="#AAABB6"/><mask id="ru-kz-b" fill="#fff"><use xlink:href="#ru-kz-a"/></mask><use fill="#D3D4DE" xlink:href="#ru-kz-a"/><g fill-rule="nonzero" mask="url(#ru-kz-b)"><g transform="translate(2 2)"><circle cx="10" cy="10" r="10" fill="#338AF3"/><path fill="#FFDA44" d="M15.652 10.109H4.348c0 .78.68 1.413 1.46 1.413H5.76c0 .78.632 1.413 1.413 1.413 0 .78.633 1.413 1.413 1.413h2.826c.78 0 1.413-.633 1.413-1.413.78 0 1.413-.633 1.413-1.413h-.047c.78 0 1.46-.633 1.46-1.413z"/><path fill="#338AF3" d="M13.913 8.26a3.913 3.913 0 0 1-7.826 0"/><path fill="#FFDA44" d="M12.989 8.26l-1.221.575.65 1.183-1.326-.254-.168 1.34L10 10.12l-.924.985-.168-1.34-1.326.254.65-1.183-1.22-.574 1.22-.575-.65-1.182 1.326.253.168-1.34.924.986.924-.985.168 1.34 1.326-.254-.65 1.182z"/></g></g></g></svg><svg xmlns:xlink="http://www.w3.org/1999/xlink" width="24" height="24" id="ru-ru" y="960"><defs><circle id="ru-ru-a" cx="12" cy="12" r="10"/></defs><g fill="none" fill-rule="evenodd"><circle cx="12" cy="12" r="11.5" stroke="#AAABB6"/><mask id="ru-ru-b" fill="#fff"><use xlink:href="#ru-ru-a"/></mask><use fill="#D3D4DE" xlink:href="#ru-ru-a"/><g fill-rule="nonzero" mask="url(#ru-ru-b)"><g transform="translate(2 2)"><circle cx="10" cy="10" r="10" fill="#F0F0F0"/><path fill="#0052B4" d="M19.378 13.478A9.978 9.978 0 0 0 20 10c0-1.223-.22-2.395-.622-3.478H.622A9.979 9.979 0 0 0 0 10c0 1.223.22 2.395.622 3.478l9.378.87 9.378-.87z"/><path fill="#D80027" d="M10 20c4.3 0 7.965-2.714 9.378-6.522H.622A10.004 10.004 0 0 0 10 20z"/></g></g></g></svg><svg xmlns:xlink="http://www.w3.org/1999/xlink" width="24" height="24" id="sg" y="984"><defs><circle id="sg-a" cx="12" cy="12" r="10"/></defs><g fill="none" fill-rule="evenodd"><circle cx="12" cy="12" r="11.5" stroke="#AAABB6"/><mask id="sg-b" fill="#fff"><use xlink:href="#sg-a"/></mask><use fill="#D3D4DE" xlink:href="#sg-a"/><g mask="url(#sg-b)"><g fill-rule="nonzero" transform="translate(2 2)"><circle cx="10" cy="10" r="10" fill="#F0F0F0"/><path fill="#D80027" d="M0 10C0 4.477 4.477 0 10 0s10 4.477 10 10"/><g fill="#F0F0F0"><path d="M6.087 5.217a3.044 3.044 0 0 1 2.391-2.972 3.043 3.043 0 1 0 0 5.945 3.044 3.044 0 0 1-2.391-2.973zM10 2.391l.216.665h.698l-.565.41.216.664L10 3.72l-.565.41.216-.664-.565-.41h.698z"/><path d="M8.306 3.696l.215.664h.699l-.565.41.216.665-.565-.41-.565.41.215-.665-.565-.41h.699zm3.388 0l.216.664h.699l-.565.41.215.665-.565-.41-.565.41.216-.665-.565-.41h.699zm-.652 1.956l.216.664h.699l-.566.411.216.664-.565-.41-.565.41.216-.664-.565-.41h.698zm-2.084 0l.216.664h.698l-.565.411.216.664-.565-.41-.565.41.216-.664-.566-.41h.699z"/></g></g></g></g></svg><svg xmlns:xlink="http://www.w3.org/1999/xlink" width="24" height="24" id="sv-se" y="1008"><defs><circle id="sv-se-a" cx="12" cy="12" r="10"/></defs><g fill="none" fill-rule="evenodd"><circle cx="12" cy="12" r="11.5" stroke="#AAABB6"/><mask id="sv-se-b" fill="#fff"><use xlink:href="#sv-se-a"/></mask><use fill="#D3D4DE" xlink:href="#sv-se-a"/><g mask="url(#sv-se-b)"><g fill-rule="nonzero" transform="translate(2 2)"><circle cx="10" cy="10" r="10" fill="#FFDA44"/><path d="M7.826 8.696h12.09C19.275 3.789 15.08 0 10 0c-.747 0-1.474.083-2.174.238v8.458zm-2.609 0v-7.48a10.006 10.006 0 0 0-5.132 7.48h5.132zm0 2.608H.085a10.006 10.006 0 0 0 5.132 7.48v-7.48zm2.609 0v8.458c.7.155 1.427.238 2.174.238 5.08 0 9.276-3.79 9.915-8.696H7.826z" fill="#0052B4"/></g></g></g></svg><svg xmlns:xlink="http://www.w3.org/1999/xlink" width="24" height="24" id="th-th" y="1032"><defs><circle id="th-th-a" cx="12" cy="12" r="10"/></defs><g fill="none" fill-rule="evenodd"><circle cx="12" cy="12" r="11.5" stroke="#AAABB6"/><mask id="th-th-b" fill="#fff"><use xlink:href="#th-th-a"/></mask><use fill="#D3D4DE" xlink:href="#th-th-a"/><g mask="url(#th-th-b)"><g fill-rule="nonzero" transform="translate(2 2)"><circle cx="10" cy="10" r="10" fill="#F0F0F0"/><path fill="#0052B4" d="M19.378 6.522H.622A9.978 9.978 0 0 0 0 10c0 1.223.22 2.395.622 3.478h18.756A9.979 9.979 0 0 0 20 10c0-1.223-.22-2.395-.622-3.478z"/><path d="M10 0a9.977 9.977 0 0 0-7.58 3.478h15.16A9.977 9.977 0 0 0 10 0zm7.58 16.522H2.42A9.977 9.977 0 0 0 10 20a9.977 9.977 0 0 0 7.58-3.478z" fill="#D80027"/></g></g></g></svg><svg xmlns:xlink="http://www.w3.org/1999/xlink" width="24" height="24" id="tl-ph" y="1056"><defs><circle id="tl-ph-a" cx="12" cy="12" r="10"/></defs><g fill="none" fill-rule="evenodd"><circle cx="12" cy="12" r="11.5" stroke="#AAABB6"/><mask id="tl-ph-b" fill="#fff"><use xlink:href="#tl-ph-a"/></mask><use fill="#D3D4DE" xlink:href="#tl-ph-a"/><g mask="url(#tl-ph-b)"><g fill-rule="nonzero" transform="translate(2 2)"><circle cx="10" cy="10" r="10" fill="#F0F0F0"/><path fill="#D80027" d="M10 0v10l-7.071 7.071A9.969 9.969 0 0 0 10 20c5.523 0 10-4.477 10-10S10 0 10 0z"/><path fill="#0052B4" d="M10 0a9.969 9.969 0 0 0-7.071 2.929L10 10h10c0-5.523-4.477-10-10-10z"/><path d="M6.847 10l-1.22-.574.65-1.183-1.327.253-.168-1.34-.924.986-.923-.985-.168 1.34-1.326-.254.65 1.183L.87 10l1.22.574-.65 1.183 1.327-.253.168 1.34.923-.986.924.985.168-1.34 1.326.254-.65-1.183zm-4.18-6.087l.406.568.666-.21-.415.561.407.568-.663-.22-.415.562.006-.699-.663-.22.666-.212zm0 10.345l.406.568.666-.21-.415.562.407.568-.663-.221-.415.562.006-.698-.663-.221.666-.211zm5.797-5.172l-.407.568-.666-.211.415.562-.406.568.662-.22.415.561-.005-.698.663-.22-.666-.212z" fill="#FFDA44"/></g></g></g></svg><svg xmlns:xlink="http://www.w3.org/1999/xlink" width="24" height="24" id="tr-tr" y="1080"><defs><circle id="tr-tr-a" cx="12" cy="12" r="10"/></defs><g fill="none" fill-rule="evenodd"><circle cx="12" cy="12" r="11.5" stroke="#AAABB6"/><mask id="tr-tr-b" fill="#fff"><use xlink:href="#tr-tr-a"/></mask><use fill="#D3D4DE" xlink:href="#tr-tr-a"/><g mask="url(#tr-tr-b)"><g fill-rule="nonzero" transform="translate(2 2)"><circle cx="10" cy="10" r="10" fill="#D80027"/><g fill="#F0F0F0"><path d="M9.59 8.171l.821 1.131 1.329-.43L10.918 10l.82 1.13-1.328-.432-.822 1.13.001-1.397-1.328-.433 1.329-.43z"/><path d="M7.351 12.826a2.826 2.826 0 1 1 1.345-5.312 3.478 3.478 0 1 0 0 4.973c-.4.216-.858.34-1.345.34z"/></g></g></g></g></svg><svg xmlns:xlink="http://www.w3.org/1999/xlink" width="24" height="24" id="ua-ua" y="1104"><defs><circle id="ua-ua-a" cx="12" cy="12" r="10"/></defs><g fill="none" fill-rule="evenodd"><circle cx="12" cy="12" r="11.5" stroke="#AAABB6"/><mask id="ua-ua-b" fill="#fff"><use xlink:href="#ua-ua-a"/></mask><use fill="#D3D4DE" xlink:href="#ua-ua-a"/><g fill-rule="nonzero" mask="url(#ua-ua-b)"><g transform="translate(2 2)"><circle cx="10" cy="10" r="10" fill="#FFDA44"/><path fill="#338AF3" d="M0 10C0 4.477 4.477 0 10 0s10 4.477 10 10"/></g></g></g></svg><svg xmlns:xlink="http://www.w3.org/1999/xlink" width="24" height="24" id="vi-vn" y="1128"><defs><circle id="vi-vn-a" cx="12" cy="12" r="10"/></defs><g fill="none" fill-rule="evenodd"><circle cx="12" cy="12" r="11.5" stroke="#AAABB6"/><mask id="vi-vn-b" fill="#fff"><use xlink:href="#vi-vn-a"/></mask><use fill="#D3D4DE" xlink:href="#vi-vn-a"/><g fill-rule="nonzero" mask="url(#vi-vn-b)"><g transform="translate(2 2)"><circle cx="10" cy="10" r="10" fill="#D80027"/><path fill="#FFDA44" d="M10 5.217l1.08 3.322h3.492l-2.826 2.053 1.08 3.321L10 11.86l-2.825 2.053 1.079-3.321-2.826-2.053h3.493z"/></g></g></g></svg><svg xmlns:xlink="http://www.w3.org/1999/xlink" width="24" height="24" id="zh-cn" y="1152"><defs><circle id="zh-cn-a" cx="12" cy="12" r="10"/></defs><g fill="none" fill-rule="evenodd"><circle cx="12" cy="12" r="11.5" stroke="#AAABB6"/><mask id="zh-cn-b" fill="#fff"><use xlink:href="#zh-cn-a"/></mask><use fill="#D3D4DE" xlink:href="#zh-cn-a"/><g mask="url(#zh-cn-b)"><g fill-rule="nonzero" transform="translate(2 2)"><circle cx="10" cy="10" r="10" fill="#D80027"/><path d="M5.473 6.086l.863 2.656h2.793L6.87 10.387l.863 2.656-2.261-1.64-2.262 1.64.867-2.656-2.262-1.645H4.61zm6.382 9.402l-.66-.812-.976.379.566-.88-.66-.816 1.012.27.57-.879.055 1.047 1.015.27-.98.374zm1.313-2.383l.312-1-.855-.605 1.047-.016.308-1 .34.993 1.047-.012-.84.625.336.992-.855-.605zm1.77-5.765l-.461.941.75.73-1.036-.148-.46.938-.18-1.031-1.04-.149.93-.488-.18-1.035.75.73zm-3.055-2.852l-.078 1.043.972.395-1.02.25-.073 1.047-.551-.891-1.02.25.676-.8-.555-.887.973.394z" fill="#FFDA44"/></g></g></g></svg><svg xmlns:xlink="http://www.w3.org/1999/xlink" width="24" height="24" id="zh-tw" y="1176"><defs><circle id="zh-tw-a" cx="12" cy="12" r="10"/></defs><g fill="none" fill-rule="evenodd"><circle cx="12" cy="12" r="11.5" stroke="#AAABB6"/><mask id="zh-tw-b" fill="#fff"><use xlink:href="#zh-tw-a"/></mask><use fill="#D3D4DE" xlink:href="#zh-tw-a"/><g fill-rule="nonzero" mask="url(#zh-tw-b)"><g transform="translate(2 2)"><path fill="#D80027" d="M20 10c0 5.523-4.477 10-10 10S0 15.523 0 10L10 0c5.523 0 10 4.477 10 10z"/><path fill="#0052B4" d="M10 10V0C4.477 0 0 4.477 0 10h10z"/><path fill="#F0F0F0" d="M8.696 5.852l-1.222.575.65 1.183L6.8 7.356l-.169 1.34-.923-.986-.924.986-.168-1.34-1.326.254.65-1.183-1.221-.575 1.221-.574-.65-1.183 1.326.254.168-1.34.924.985.924-.985.168 1.34 1.326-.254-.65 1.183z"/><circle cx="5.707" cy="5.852" r="1.861" fill="#0052B4"/><path fill="#F0F0F0" d="M5.707 6.844a.993.993 0 0 1 0-1.983.993.993 0 0 1 0 1.983z"/></g></g></g></svg></svg>
