<svg xmlns="http://www.w3.org/2000/svg" width="32" height="32"><path fill="none" stroke="#2D364C" stroke-linecap="round" stroke-linejoin="round" stroke-width="1.5" d="M17.85 27.372a1.142 1.142 0 01-.36.8 1.086 1.086 0 01-.8.36h-2a.998.998 0 01-.78-.36 1.062 1.062 0 01-.36-.8c-.003-.27.089-.531.26-.74a.34.34 0 01.1-.1c.193-.23.48-.363.78-.36h2c.305.003.596.134.8.36.24.212.372.52.36.84h0a5.292 5.292 0 002.84-1.56 5.193 5.193 0 001.5-2.66 1.666 1.666 0 01-.52.08 1.911 1.911 0 01-1.42-.62.789.789 0 01-.22-.24 1.66 1.66 0 01-.22-.48 1.495 1.495 0 01-.16-.68v-4.94a2.036 2.036 0 013.46-1.44c.38.383.589.902.58 1.44v1.84a8.514 8.514 0 00.94-4 8.613 8.613 0 10-17.22 0 8.61 8.61 0 00.9 3.94v-1.8a2.048 2.048 0 012.04-2 1.95 1.95 0 012.02 2v4.96a1.94 1.94 0 01-.12.68 1.347 1.347 0 01-.24.48c-.06.085-.127.166-.2.24a2.8 2.8 0 01-.52.4c-.285.165-.61.248-.94.24a1.874 1.874 0 01-1.42-.62 1.85 1.85 0 01-.62-1.4v-1.64a10 10 0 01.84-13.676 10 10 0 0113.702 0 10 10 0 01.84 13.676v1.64a1.909 1.909 0 01-.58 1.4 1.94 1.94 0 01-.92.54m1.5-3.6v-1.46m-15.38-.04v1.5"/></svg>