<svg xmlns="http://www.w3.org/2000/svg" width="28" height="28"><path fill="#2D364C" fill-rule="evenodd" d="M13.824 0a.75.75 0 01.75.75l-.001 1.326a.88.88 0 01.146-.028 9.024 9.024 0 012.303-.292c2.483 0 4.587.854 6.305 2.54 1.723 1.76 2.592 3.853 2.592 6.228a9.33 9.33 0 01-.323 2.525l1.303-.001a.75.75 0 010 1.5h-1.256c.017.053.03.105.039.158.202.758.305 1.561.305 2.384 0 2.44-.88 4.538-2.614 6.238-1.69 1.724-3.79 2.602-6.23 2.602a9.042 9.042 0 01-2.57-.351l.001 1.171a.75.75 0 01-1.5 0l-.002-1.097a8.727 8.727 0 01-2.414.325c-2.487 0-4.587-.879-6.287-2.612-1.724-1.688-2.604-3.77-2.604-6.179v-.146c0-.845.115-1.664.344-2.446H.75a.75.75 0 010-1.5h1.304a8.754 8.754 0 01-.335-2.439c0-2.439.878-4.553 2.609-6.283 1.698-1.697 3.796-2.558 6.234-2.558.916 0 1.747.11 2.512.33V.75a.75.75 0 01.75-.75zM3.267 17.041v.146c0 2.02.708 3.692 2.164 5.117 1.438 1.467 3.129 2.174 5.18 2.174.734 0 1.386-.083 1.982-.248.08-.035.177-.069.285-.084l.195-.054v-.55c-2.396-.158-4.483-1.111-6.208-2.839l-.272-.27c-1.554-1.672-2.412-3.629-2.567-5.837H3.69a7.113 7.113 0 00-.422 2.445zm20.808-2.492h-.543c-.162 2.366-1.115 4.434-2.838 6.154-1.714 1.715-3.77 2.667-6.12 2.836V24a7.086 7.086 0 002.47.431c2.15 0 3.84-.706 5.268-2.163 1.467-1.436 2.175-3.127 2.175-5.177a7.75 7.75 0 00-.267-2.044L24.209 15a.968.968 0 01-.045-.136 2.9 2.9 0 00-.09-.314zm-7.488 3.124c-.8.608-1.752.92-2.83.92-1.038 0-1.964-.303-2.76-.903l-.01.011-2.5 2.46c1.507 1.281 3.253 1.905 5.315 1.905 2.034 0 3.765-.624 5.27-1.903l-2.485-2.49zM7.414 8.489C6.128 10 5.501 11.747 5.501 13.812c0 2.065.628 3.788 1.916 5.294l2.51-2.468c-.628-.806-.951-1.772-.951-2.87 0-1.05.31-1.986.925-2.79L7.414 8.49zm12.727-.002l-2.465 2.514.137.193c.512.754.77 1.616.77 2.575 0 1.08-.314 2.035-.935 2.845l2.487 2.49c1.292-1.508 1.922-3.245 1.922-5.29 0-2.067-.628-3.817-1.916-5.327zm-6.383 2c-.901 0-1.648.32-2.283.98-.678.654-1 1.4-1 2.302 0 .932.322 1.692.98 2.325.656.68 1.402 1 2.303 1 .93 0 1.692-.32 2.327-.98.679-.653.999-1.414.999-2.345 0-.901-.32-1.648-.98-2.281l-.02-.021c-.634-.66-1.395-.98-2.326-.98zM10.66 3.316c-2.153 0-3.845.693-5.272 2.119-1.46 1.459-2.17 3.167-2.17 5.222 0 .683.085 1.333.249 1.931.044.101.072.195.085.287.017.074.038.148.061.22h.413c.164-2.419 1.117-4.496 2.839-6.216 1.727-1.728 3.813-2.68 6.209-2.84V3.72a7.028 7.028 0 00-2.414-.405zm6.409-.06a7.603 7.603 0 00-2.063.268.696.696 0 01-.14.046 3.591 3.591 0 00-.291.079v.401c2.27.18 4.205 1.032 5.829 2.54l.29.29c1.718 1.717 2.67 3.79 2.836 6.169h.494a7.264 7.264 0 00.395-2.43c0-2.091-.704-3.781-2.155-5.263-1.435-1.41-3.139-2.1-5.195-2.1zm-3.187 2.26c-2.138 0-3.895.626-5.406 1.913l2.485 2.488c.796-.613 1.738-.928 2.797-.928 1.087 0 2.046.318 2.86.947l2.467-2.514C17.62 6.17 15.909 5.54 13.882 5.514z"/></svg>