<svg xmlns="http://www.w3.org/2000/svg" width="23" height="28" viewBox="0 0 23 25"><path fill="#2D364C" fill-rule="evenodd" d="M16.223 18.35h-11.4a.75.75 0 010-1.5h10.762l.319-1.95H4.523c-.75-.045-1.322-.26-1.749-.64a3.761 3.761 0 01-.784-1.151L.262 7.937c-.287-.9-.336-1.553-.158-2.057a2.48 2.48 0 01.979-1.437c.38-.344.969-.543 1.69-.543h11.55a.75.75 0 010 1.5H2.773c-.342 0-.595.071-.751.21-.279.207-.409.401-.468.658a.704.704 0 01-.035.11c-.004.01-.097.26.169 1.095l1.696 5.09c.099.209.25.437.419.607.138.121.407.209.766.232l11.579-.002L18.233.629a.75.75 0 01.74-.629h3a.75.75 0 010 1.5h-2.362l-2.648 16.221a.75.75 0 01-.74.629m-10.3 3.05c-.2 0-.36.071-.52.23a.695.695 0 00-.23.52c0 .2.071.36.231.521a.616.616 0 00.519.229c.276 0 .403-.101.49-.198.188-.191.26-.352.26-.552 0-.2-.071-.361-.23-.52a.698.698 0 00-.52-.23m0 3c-.645 0-1.202-.242-1.61-.7a2.172 2.172 0 01-.64-1.55c0-.596.231-1.142.67-1.58a2.227 2.227 0 013.16 0 2.197 2.197 0 01.001 3.16c-.379.428-.936.67-1.581.67m9-3c-.2 0-.36.071-.52.23a.695.695 0 00-.23.52c0 .2.071.36.231.521a.616.616 0 00.519.229c.276 0 .403-.101.49-.198.188-.191.26-.352.26-.552 0-.2-.071-.361-.23-.52a.698.698 0 00-.52-.23m0 3c-.645 0-1.202-.242-1.61-.7a2.172 2.172 0 01-.64-1.55c0-.596.231-1.142.67-1.58a2.227 2.227 0 013.16 0 2.197 2.197 0 01.001 3.16c-.379.428-.936.67-1.581.67"/></svg>