<svg xmlns="http://www.w3.org/2000/svg" width="24" height="28" viewBox="0 0 24 23"><path fill="#2D364C" fill-rule="evenodd" d="M22.75 11.806a.744.744 0 01-.53-.22l-9.9-9.9c-.201-.18-.38-.197-.507-.183a.954.954 0 01-.131 0c-.063-.01-.244-.023-.558.234L1.28 11.586a.749.749 0 11-1.06-1.06l9.9-9.901c.557-.459 1.09-.647 1.632-.621.583-.036 1.132.174 1.6.594l9.928 9.928a.749.749 0 01-.53 1.28m-3.1 11.1h-6.5a.75.75 0 01-.75-.75v-5.75h-1.35v5.75a.75.75 0 01-.75.75H3.8a.75.75 0 01-.75-.75v-9.5a.75.75 0 011.5 0v8.75h5v-5.75a.75.75 0 01.75-.75h2.85a.75.75 0 01.75.75v5.75h5v-8.75a.75.75 0 011.5 0v9.5a.75.75 0 01-.75.75"/></svg>