<svg xmlns="http://www.w3.org/2000/svg" width="32" height="32"><path fill="#fff" fill-rule="evenodd" d="M22 2a8 8 0 018 8v12a8 8 0 01-8 8H10a8 8 0 01-8-8V10a8 8 0 018-8h12zm-1 10c-1.788 0-2.788 1.041-2.788 2.256 0 1.641 1.455 1.989 2.697 2.288.94.221 1.773.474 1.773 1.231 0 .647-.546 1.089-1.576 1.089-.985 0-1.954-.52-2.454-1.089L18 18.817c.742.789 1.818 1.183 3.045 1.183C22.97 20 24 18.974 24 17.665c0-1.752-1.515-2.115-2.788-2.415-.909-.22-1.697-.441-1.697-1.104 0-.615.576-.994 1.5-.994s1.743.394 2.167.93l.606-.993C23.167 12.473 22.258 12 21 12zm-7.5 0c-2.053 0-3.5 1.693-3.5 4s1.447 4 3.5 4 3.5-1.693 3.5-4-1.447-4-3.5-4zM9 15H8v4.5a.5.5 0 101 0V15zm4.5-1.8c1.338 0 2.3 1.107 2.3 2.8 0 1.693-.962 2.8-2.3 2.8-1.338 0-2.3-1.107-2.3-2.8 0-1.693.962-2.8 2.3-2.8zM9 13H8v1h1v-1z"/></svg>