<svg xmlns="http://www.w3.org/2000/svg" width="16" height="16"><path d="M11 0a5 5 0 015 5v6a5 5 0 01-5 5H5a5 5 0 01-5-5V5a5 5 0 015-5h6zm1 5c-1.192 0-1.859.781-1.859 1.692 0 1.231.97 1.491 1.798 1.716.627.166 1.182.355 1.182.923 0 .486-.363.817-1.05.817-.657 0-1.303-.39-1.637-.817l-.434.781c.495.592 1.212.888 2.03.888 1.283 0 1.97-.77 1.97-1.751 0-1.314-1.01-1.586-1.859-1.811-.606-.166-1.13-.331-1.13-.829 0-.461.383-.745 1-.745.615 0 1.16.296 1.444.698l.404-.745A2.415 2.415 0 0012 5zM6.5 5C5.034 5 4 6.27 4 8s1.034 3 2.5 3S9 9.73 9 8 7.966 5 6.5 5zM3 7H2v3.5a.5.5 0 001 0V7zm3.5-1.1c.956 0 1.643.83 1.643 2.1s-.687 2.1-1.643 2.1S4.857 9.27 4.857 8 5.544 5.9 6.5 5.9zM3 5H2v1h1V5z" fill="#A8A4C2" fill-rule="evenodd"/></svg>