<svg xmlns="http://www.w3.org/2000/svg" width="16" height="16"><path d="M10.536 14.996c.416-.032.798-.237 1.145-.615l.129-.15c.156-.219.468-.438.936-.656a3.03 3.03 0 01.39-.22c.225-.145.347-.318.364-.518h-.026c.017-.2-.113-.465-.39-.793-.052-.073-.113-.246-.182-.52v-.027c-.07-.31-.165-.51-.286-.601l-.104-.082-.104-.055c.225-.674.2-1.394-.078-2.16-.243-.637-.65-1.32-1.222-2.05l-.026-.027a13.941 13.941 0 01-.598-.875 2.154 2.154 0 01-.235-.884l.001-.319c0-.637-.017-1.13-.052-1.476-.087-.583-.26-1.039-.52-1.367-.33-.4-.797-.601-1.404-.601-.693 0-1.213.191-1.56.574-.277.292-.442.71-.494 1.258-.035.328-.035.774 0 1.339.017.255.026.428.026.52a3.34 3.34 0 01-.156.901 2.969 2.969 0 01-.442.875c-.745.93-1.248 1.814-1.508 2.652-.173.528-.225 1.011-.156 1.449-.07.054-.156.164-.26.328l-.156.218c-.07.073-.2.137-.39.192l-.078.027c-.225.091-.381.228-.468.41a.65.65 0 00-.078.328c0 .073.009.182.026.328l.026.055c.035.255.035.428 0 .52-.121.382-.138.664-.052.847.087.182.26.3.52.355.104.018.26.036.468.055.44.063.767.141.981.233l.085.04c.537.31 1.023.41 1.456.3.33-.072.555-.254.676-.546.104 0 .269-.027.494-.082.312-.055.572-.091.78-.11.104-.018.303 0 .598.055.347.055.624.073.832.055.017.073.035.137.052.191.104.22.251.383.442.492.19.11.39.155.598.137zM9.002 4.472a1.455 1.455 0 00-.312-.137l.104-.11a.792.792 0 000-.491c-.052-.164-.13-.251-.234-.26-.104-.01-.19.055-.26.191a.66.66 0 00-.052.451c-.087-.054-.2-.1-.338-.136-.035-.2-.009-.401.078-.602.121-.291.308-.437.56-.437.25 0 .445.146.584.437.07.182.095.378.078.588a.805.805 0 01-.208.506zm-2.288.027c-.139-.128-.22-.305-.247-.533-.026-.228.004-.433.091-.615s.204-.273.351-.273.273.086.377.26c.104.172.147.387.13.642a.908.908 0 00-.26.136.68.68 0 00-.052-.369c-.052-.118-.126-.173-.22-.164-.096.01-.148.114-.157.315-.009.2.04.346.143.437v.027l-.065.055a.974.974 0 00-.09.082zm.91 1.449a.63.63 0 01-.273-.055 1.08 1.08 0 01-.273-.205 2.368 2.368 0 00-.234-.205c-.208-.127-.338-.264-.39-.41-.035-.146 0-.264.104-.355l.416-.301c.225-.237.446-.355.663-.355.217 0 .446.082.69.246.068.036.164.082.285.136l.312.11c.26.109.351.278.273.505-.078.228-.273.388-.585.479-.07.036-.169.095-.299.177-.13.082-.23.142-.299.178-.121.055-.251.073-.39.055zm-.026-.41c.19 0 .46-.091.806-.274a1.62 1.62 0 00.39-.287c.121-.118.147-.177.078-.177-.017-.019-.039-.005-.065.04a.234.234 0 01-.09.096l-.079.055c-.121.11-.217.173-.286.191-.312.2-.572.301-.78.301-.208 0-.416-.091-.624-.273l-.208-.192-.026-.054c-.035-.055-.065-.082-.09-.082-.027 0-.036.023-.027.068.009.046.03.087.065.123h.026l.182.191c.243.183.485.274.728.274zm-.988 7.627a3.07 3.07 0 00-.364-.547c.225 0 .368-.087.43-.26.06-.173-.005-.396-.196-.67-.139-.2-.347-.41-.624-.628l-.364-.246c-.33-.219-.546-.492-.65-.82a1.784 1.784 0 010-.957c.087-.438.32-.984.702-1.64.07-.055 0 .136-.208.574a3.489 3.489 0 00-.338 1.011c-.07.492.017.911.26 1.258.017-.565.139-1.13.364-1.695l.182-.438c.243-.546.416-.975.52-1.284.19-.529.295-.985.312-1.367l.156.136A.65.65 0 017 5.756l.13.11c.156.127.33.191.52.191s.381-.054.572-.164l.156-.11c.121-.072.208-.118.26-.136.26-.091.45-.228.572-.41.104.401.26.866.468 1.394.173.51.347.92.52 1.23.312.602.511 1.185.598 1.75.087 0 .182.018.286.055.156-.438.139-.912-.052-1.422-.139-.383-.32-.683-.546-.902-.121-.128-.147-.191-.078-.191.19.182.364.41.52.683.19.31.325.629.403.957.078.328.082.647.013.957.641.273.91.592.806.956h-.13a.36.36 0 00-.065-.382c-.095-.11-.273-.22-.533-.328-.607-.292-.936-.183-.988.328-.277.109-.46.364-.546.765-.052.2-.095.556-.13 1.066 0 .146-.052.401-.156.766v.027c-.468.346-.945.547-1.43.601a2.153 2.153 0 01-1.56-.382zm3.042 1.12c-.087-.237-.078-.565.026-.984l.104-.355c.104-.365.156-.62.156-.766.035-.51.07-.865.104-1.066.07-.291.19-.483.364-.574h.026c.017.183.07.351.156.506.087.155.204.25.351.287.147.037.32.005.52-.096.2-.1.351-.214.455-.341h.052a.916.916 0 01.325 0 .52.52 0 01.234.136c.065.061.124.198.177.41l.031.137c.06.292.134.483.221.574v.027c.243.274.364.493.364.657-.017.109-.087.21-.208.3-.07.055-.217.137-.442.246a3.33 3.33 0 00-.52.301c-.19.128-.347.273-.468.437-.347.42-.724.647-1.131.684-.407.036-.706-.137-.897-.52zm-4.966.055c-.243-.128-.624-.219-1.144-.273-.26-.037-.433-.073-.52-.11-.156-.036-.26-.1-.312-.191-.07-.146-.043-.392.078-.738.035-.128.026-.319-.026-.574v-.082c-.035-.255-.022-.442.04-.56.06-.119.185-.215.376-.288l.104-.054c.156-.055.286-.128.39-.219.052-.055.121-.146.208-.273l.182-.219c.121-.164.277-.228.468-.191.19.036.373.182.546.437l.52.984c.052.128.2.346.442.656.208.292.355.501.442.629.139.237.2.428.182.574-.035.456-.269.72-.702.793-.399.054-.823-.046-1.274-.301z" fill="#A8A4C2" fill-rule="evenodd"/></svg>