<svg width="16" height="16" xmlns="http://www.w3.org/2000/svg"><path d="M10.92 4.003c.254 0 .646.085 1.177.256.53.17 1.026.561 1.488 1.174-.093.023-.364.261-.813.715-.45.454-.71 1.135-.779 2.043.092 1.09.427 1.855 1.004 2.298.576.443.91.664 1.003.664a19.06 19.06 0 00-.277.664c-.161.397-.415.857-.761 1.379-.3.476-.629.89-.986 1.242-.358.352-.773.528-1.246.528s-.865-.085-1.177-.255c-.31-.17-.732-.256-1.263-.256-.53 0-.957.085-1.28.256-.323.17-.703.266-1.142.289-.484 0-.917-.187-1.297-.562a7.034 7.034 0 01-1.021-1.276c-.67-.954-1.142-2.117-1.419-3.49-.277-1.373-.115-2.65.485-3.83A4.113 4.113 0 013.93 4.53a3.221 3.221 0 011.73-.494 3.78 3.78 0 011.35.307c.415.181.773.283 1.073.306.3-.023.698-.142 1.194-.357a3.719 3.719 0 011.643-.29zM10.984 0a3.75 3.75 0 01-.158 1.488 5 5 0 01-.61 1.285c-.257.38-.583.686-.978.917a2.112 2.112 0 01-1.222.306 3.556 3.556 0 01.174-1.488c.163-.476.36-.877.594-1.203a3.26 3.26 0 011.03-.918c.407-.23.797-.36 1.17-.387z" fill="#A8A4C2" fill-rule="evenodd"/></svg>