<svg xmlns="http://www.w3.org/2000/svg" width="43" height="52"><path fill="#FFF" fill-rule="evenodd" d="M2.353 19.078c-4.602 7.817-1.313 19.901 3.383 26.151 2.065 3.128 4.695 6.71 8.075 6.527 3.383-.091 4.603-2.114 8.641-2.114 3.947 0 5.26 2.114 8.735 2.023 3.475 0 5.728-3.127 7.983-6.253 2.536-3.584 3.477-7.076 3.66-7.352-.183 0-7.041-2.484-7.136-10.294 0-6.438 5.354-10.248 5.731-10.248-3.099-4.324-7.796-5.238-9.58-5.238-4.133-.458-6.477 2.436-10.051 2.436-3.297 0-5.259-2.706-8.639-2.615-4.414 0-8.547 3.12-10.802 6.977zM23.379 3.943c-1.691 2.022-3.193 5.054-2.816 7.994 3.004.278 6.008-1.375 7.794-3.583 1.88-2.203 3.005-5.146 2.724-8.273-2.537.184-5.73 1.75-7.702 3.862z"/></svg>