<svg width="28" height="28" xmlns="http://www.w3.org/2000/svg"><path d="M7.236 11.295v3.124c.013.275.044.551.094.825.072.43.193.853.36 1.262a7.802 7.802 0 001.693 2.504c.05.052.1.105.157.161l.183.179a.358.358 0 00.04.035l.068.058c.843.768 1.91 1.498 3.167 2.17.173.092.357.184.55.274l.035.017.416.177s1.812.905 5.482 1.457A10.959 10.959 0 0113.997 25C7.997 25 3.121 20.196 3 14.227a15.977 15.977 0 012.687-2.09c.504-.294.951-.54 1.318-.73l.231-.112zm12.099-6.91A10.97 10.97 0 0124.995 14c0 3.215-1.381 6.107-3.582 8.118a15.774 15.774 0 01-5.396-1.093 14.228 14.228 0 002.147-1.582l.031-.028.035-.028.04-.036.185-.181a4.89 4.89 0 00.155-.161 7.806 7.806 0 001.692-2.504c.167-.406.288-.828.36-1.256a6.28 6.28 0 00.096-.83V9.414s-.226-1.947-.87-3.626c-.162-.48-.347-.947-.553-1.404zM13.997 3c1.105 0 2.17.163 3.177.466.807 1.5 1.38 3.146 1.67 4.888a15.801 15.801 0 00-4.854-.759 15.77 15.77 0 00-10.76 4.221.144.144 0 01-.017.012 10.998 10.998 0 014.023-6.505A10.952 10.952 0 0113.997 3z" fill="#FF7800" fill-rule="evenodd"/></svg>