<svg xmlns="http://www.w3.org/2000/svg" width="16" height="16"><path fill="#FFF" fill-rule="evenodd" d="M5.495 11.425a48.76 48.76 0 01-.344-.55C3.717 8.556 3 6.88 3 5.85c0-1.342.488-2.486 1.463-3.432C5.439 1.472 6.616 1 7.993 1c1.386 0 2.568.472 3.544 1.417.975.946 1.463 2.09 1.463 3.432 0 1.113-.833 2.972-2.498 5.576a.843.843 0 00-.047.083A52.542 52.542 0 017.994 15a41.747 41.747 0 01-1.486-2.043 42.442 42.442 0 01-.862-1.299l-.15-.233zm2.599-3.137c.691 0 1.283-.233 1.774-.7.488-.472.732-1.036.732-1.691 0-.664-.244-1.229-.732-1.695a2.468 2.468 0 00-1.774-.709 2.44 2.44 0 00-1.767.71A2.264 2.264 0 005.6 5.896c0 .655.242 1.219.727 1.692a2.46 2.46 0 001.767.699z"/></svg>