<svg width="28" height="28" xmlns="http://www.w3.org/2000/svg"><path d="M14.339 8.798c-.198.005-.33.092-.394.259-.537 1.626-.816 2.452-.835 2.477h-2.554c-.192 0-.32.096-.384.288-.076.186-.032.341.135.47l2.073 1.526-.796 2.448c-.071.192-.016.35.163.47l-.02-.01c.18.141.35.149.51.02l1.948-1.42a.458.458 0 01.154-.087h.038a.506.506 0 01.163.096l1.94 1.401c.159.135.33.131.508-.01l-.02.01c.18-.12.235-.278.164-.47l-.797-2.448 2.083-1.526c.154-.129.198-.284.135-.47-.071-.192-.202-.288-.394-.288h-2.553l-.835-2.477c-.064-.173-.196-.26-.394-.26h-.038zm1.392-6.509l7.19 2.112c.378.11.672.22.883.336.428.198.706.542.835 1.027.052.206.077.446.077.72v6.701c-.014.345-.039.666-.077.96-.288 2.501-1.392 4.803-3.312 6.902l-.26.268c-.888.941-1.944 1.834-3.167 2.679a38.076 38.076 0 01-2.813 1.737c-.025.014-.048.025-.067.038l-.211.116a1.18 1.18 0 01-.451.115 1.18 1.18 0 01-.451-.115l-.212-.116c-.019-.013-.042-.024-.067-.038a38.076 38.076 0 01-2.812-1.737c-1.23-.845-2.289-1.738-3.178-2.679l-.259-.268c-1.914-2.1-3.014-4.4-3.302-6.902a10.645 10.645 0 01-.077-.96V6.484c0-.274.025-.514.077-.72.128-.485.407-.83.835-1.027.211-.115.505-.226.883-.336l7.19-2.112c.659-.205 1.118-.301 1.373-.288.255-.013.714.083 1.373.288z" fill="#FF7800" fill-rule="evenodd"/></svg>