<svg xmlns="http://www.w3.org/2000/svg" width="32" height="32"><path fill="none" stroke="#FFF" stroke-linecap="round" stroke-linejoin="round" stroke-width="1.2" d="M15.984 16.8a4.3 4.3 0 013.114 1.293c.859.877 1.288 1.933 1.288 3.168 0 1.014-.33 1.972-.99 2.875-1.077 1.473-2.214 2.761-3.412 3.864-1.198-1.103-2.336-2.391-3.414-3.864-.659-.903-.989-1.861-.989-2.875 0-1.235.43-2.291 1.288-3.168a4.275 4.275 0 013.115-1.293zm-6.01 6.527c-.161.154-.323.307-.487.457-1.357-1.25-2.646-2.71-3.866-4.382-.747-1.02-1.121-2.105-1.121-3.256 0-1.4.487-2.596 1.46-3.586a4.872 4.872 0 011.61-1.096 4.93 4.93 0 011.917-.375c.68 0 1.314.125 1.904.375.194.08.38.17.56.27h0m8.097 0c.18-.1.367-.19.561-.27a4.83 4.83 0 011.904-.375c.678 0 1.318.125 1.918.375.6.25 1.136.616 1.608 1.096.974.99 1.461 2.186 1.461 3.586 0 1.15-.374 2.236-1.121 3.256-1.22 1.671-2.509 3.132-3.866 4.382-.164-.15-.326-.303-.487-.457m-6.042-12.782a2.19 2.19 0 011.622.682c.448.454.67 1.003.67 1.644a2.25 2.25 0 01-.67 1.647 2.19 2.19 0 01-1.622.682c-.63 0-1.17-.227-1.617-.682a2.258 2.258 0 01-.67-1.647c0-.641.224-1.19.67-1.644a2.186 2.186 0 011.617-.682zm6.529-6.539c.718 0 1.328.26 1.83.78.501.51.752 1.131.752 1.861s-.25 1.35-.752 1.861c-.502.52-1.112.78-1.83.78s-1.333-.26-1.845-.78a2.556 2.556 0 01-.752-1.86c0-.731.25-1.351.752-1.861a2.497 2.497 0 011.845-.78zM9.478 4c.72 0 1.332.257 1.837.77.507.517.761 1.138.761 1.863a2.55 2.55 0 01-.761 1.865 2.473 2.473 0 01-1.837.775 2.465 2.465 0 01-1.831-.775 2.546 2.546 0 01-.761-1.865c0-.725.253-1.346.76-1.862A2.48 2.48 0 019.479 4z"/></svg>