<svg xmlns="http://www.w3.org/2000/svg" width="32" height="32"><defs><filter id="a"><feColorMatrix in="SourceGraphic" values="0 0 0 0 1.000000 0 0 0 0 1.000000 0 0 0 0 1.000000 0 0 0 1.000000 0"/></filter></defs><g fill="none" fill-rule="evenodd" filter="url(#a)"><path fill="#FFF" d="M21.533 5.367c.734.389 1.35.8 1.85 1.233a11.628 11.628 0 013.35 4.1A11.598 11.598 0 0128 16.017c0 2.1-.511 4.055-1.533 5.866a11.802 11.802 0 01-4.05 4.25c-2.411-.533-4.261-1.105-5.55-1.716l.216-.1c1.467-.79 2.695-1.645 3.684-2.567.977-.933 1.677-1.933 2.1-3 .2-.422.327-.878.383-1.367.067-.289.1-.594.1-.916v-5.45a17.578 17.578 0 00-.383-2.134c-.367-1.578-.845-2.75-1.434-3.516m-5.55-1.334c1.811 0 3.534.39 5.167 1.167.778 1.544 1.228 3.344 1.35 5.4-2.289-.933-4.428-1.4-6.417-1.4-2.077 0-4.111.372-6.1 1.117-1.41.533-3.333 1.644-5.766 3.333.588-2.9 2.055-5.261 4.4-7.083 2.155-1.69 4.61-2.534 7.366-2.534M4.15 14.133c1.589-1.066 3.078-1.81 4.467-2.233v4.517c.01.333.044.65.1.95.077.455.216.916.416 1.383a8.385 8.385 0 001.85 2.717l.8.766c.634.6 1.678 1.295 3.134 2.084.733.4 1.594.76 2.583 1.083 1.322.433 2.817.767 4.483 1-1.81 1.056-3.81 1.583-6 1.583-3.31 0-6.139-1.166-8.483-3.5C5.167 22.15 4 19.328 4 16.017c0-.567.05-1.195.15-1.884"/></g></svg>