<svg xmlns="http://www.w3.org/2000/svg" width="32" height="32"><path d="M22.41 17.912c-.304 1.052-.869 1.99-1.694 2.815-1.291 1.29-2.854 1.936-4.689 1.936-1.834 0-3.397-.645-4.688-1.936-1.216-1.215-1.862-2.658-1.938-4.328l3.582 1.936m-3.338-4.198c.305-1.041.869-1.974 1.694-2.798 1.291-1.302 2.854-1.953 4.688-1.953 1.835 0 3.398.65 4.69 1.953 1.215 1.204 1.86 2.646 1.937 4.327l-3.582-1.952M26.17 8.28c0-1.595-.797-2.392-2.393-2.392h-15.5c-1.595 0-2.392.797-2.392 2.392v15.49c0 1.594.797 2.391 2.393 2.391h15.5c1.595 0 2.392-.797 2.392-2.392V8.28zm-3.875 17.881v2.23m-8.352-2.23v2.23m-4.167-2.23v2.23m8.335-2.23v2.23M5.885 13.941h-2.23m2.23-4.165h-2.23m2.23 12.512h-2.23m2.23-4.182h-2.23M18.11 3.675v2.23m-4.167-2.231v2.23m-4.167-2.23v2.23M28.4 13.941h-2.23m2.23-4.165h-2.23m2.23 12.512h-2.23m2.23-4.182h-2.23M22.294 3.675v2.23" fill="none" stroke="#FFF" stroke-linecap="round" stroke-linejoin="round" stroke-width="1.2"/></svg>