<svg xmlns="http://www.w3.org/2000/svg" width="32" height="32" viewBox="-3.5 -2 32 32"><g stroke="#FFF" stroke-width="1.2" fill="none" fill-rule="evenodd" stroke-linecap="round" stroke-linejoin="round"><path d="M23.147 11.96V3.817C19.561 1.939 15.95 1 12.314 1 8.497 1 4.796 1.939 1.21 3.817v8.143c0 1.708.21 3.311.632 4.802 1.217 3.73 4.416 6.988 9.605 9.769.217.119.462.18.74.18.279 0 .524-.061.74-.18 5.19-2.781 8.39-6.038 9.606-9.768.408-1.492.614-3.095.614-4.803z"/><path d="M14.972 8.129H7.447c-.303 0-.455.156-.455.468v5.957c0 .307.152.46.455.46h5.085m-6.71 1.267v.441a.41.41 0 00.285.12h6.425m0-1.828H7.036L5.823 16.28"/><path d="M9.205 8.129h7.526c.304 0 .456.156.456.468v5.957c0 .307-.152.46-.456.46h-5.084m6.71 1.267v.441a.412.412 0 01-.285.12h-6.425m0-1.828h5.494l1.214 1.266"/></g></svg>