<svg xmlns="http://www.w3.org/2000/svg" width="32" height="32"><path fill="none" stroke="#FFF" stroke-linecap="round" stroke-linejoin="round" stroke-width="1.2" d="M10.374 17.039h11.149c1.032 0 1.651.826 1.651 1.858v7.02c0 1.031-.62 1.857-1.651 1.857H10.374c-1.032 0-1.651-.826-1.651-1.858v-7.02c0-1.031.619-1.857 1.651-1.857zm1.342 0v-2.017c0-2.535 1.941-4.59 4.336-4.59 2.394 0 4.335 2.055 4.335 4.59v2.017m-4.335 6.64v-2.511M10.89 8.78c1.533-1.377 3.34-2.065 5.42-2.065 2.102 0 3.908.688 5.419 2.065M8 6.097C10.239 4.033 12.9 3 15.983 3c3.13 0 5.802 1.033 8.017 3.097"/></svg>