<svg xmlns="http://www.w3.org/2000/svg" width="32" height="32"><path fill="none" stroke="#FFF" stroke-linecap="round" stroke-linejoin="round" stroke-width="1.2" d="M14.65 21.606v1.5c-.033.933-.184 1.65-.45 2.15-.583 1.167-1.683 1.75-3.3 1.75-1.633 0-2.725-.575-3.275-1.725v.025c-.3-.617-.45-1.7-.45-3.25.367-.3.766-.533 1.2-.7.767-.333 1.683-.5 2.75-.5a9.883 9.883 0 013.525.75c.4.15.816.217 1.25.2.4.017.8-.05 1.2-.2a10.09 10.09 0 013.55-.75c1.05 0 1.967.167 2.75.5.433.167.834.4 1.2.7 0 1.55-.15 2.633-.45 3.25v-.025c-.55 1.15-1.641 1.725-3.275 1.725-1.616 0-2.725-.583-3.325-1.75-.267-.5-.416-1.217-.45-2.15v-1.5m6.1-10.6c.7.133 1.367.283 2 .45 2.534.717 3.8 1.567 3.8 2.55 0 1-1.267 1.858-3.8 2.575-2.534.7-5.6 1.05-9.2 1.05-3.6 0-6.667-.35-9.2-1.05-2.534-.717-3.8-1.575-3.8-2.575 0-.983 1.266-1.833 3.8-2.55.633-.167 1.3-.317 2-.45m14.475 2.975c.017-1.1-.008-2.092-.075-2.975-.166-2.3-.583-3.967-1.25-5-.733-1.083-1.8-1.292-3.2-.625l-1.25.625c-.534.233-1.034.358-1.5.375-.466-.017-.959-.142-1.475-.375L13.25 5.38c-1.417-.667-2.483-.458-3.2.625-.667 1.033-1.084 2.7-1.25 5a32.926 32.926 0 00-.075 2.975"/></svg>