<svg xmlns="http://www.w3.org/2000/svg" width="32" height="32"><g fill="none" fill-rule="evenodd" stroke="#FFF" stroke-linecap="round" stroke-linejoin="round" stroke-width="1.2"><path d="M15.999 9.5c1.503 0 2.723 1.183 2.723 2.64 0 1.458-1.22 2.64-2.723 2.64s-2.721-1.183-2.721-2.64 1.218-2.64 2.721-2.64m4.389 10.518c-.274-1.714-1.058-3.163-2.135-4.018-.638.5-1.46.784-2.335.784-.84 0-1.624-.266-2.244-.73-1.04.857-1.788 2.285-2.062 3.964-.073.446.292.855.766.855h7.244c.474 0 .839-.409.766-.855"/><path d="M27 13.6c0 1.766-.261 3.735-.646 4.862-1.205 3.572-4.405 6.696-9.6 9.372A1.71 1.71 0 0116 28c-.272 0-.524-.055-.753-.166-5.195-2.676-8.513-5.753-9.58-9.372a17.17 17.17 0 01-.665-4.862c.014-1.78 0-4.3 0-4.32 0-1.49.954-2.618 2.346-2.963.614-.152 2.982-.814 7.103-1.986C15.15 4.111 15.667 4 16 4c.334 0 .879.11 1.636.331 3.77 1.076 6.123 1.738 7.06 1.986C26.104 6.69 27 7.77 27 9.28v4.32z"/></g></svg>