<svg xmlns="http://www.w3.org/2000/svg" width="32" height="32"><path fill="none" stroke="#FFF" stroke-linecap="round" stroke-linejoin="round" stroke-width="1.2" d="M16.112 3.6c3.468 0 6.913.896 10.333 2.687h0v7.767c0 1.63-.196 3.158-.586 4.581-1.16 3.558-4.212 6.665-9.162 9.317a1.43 1.43 0 01-.706.172c-.265 0-.5-.058-.706-.172-4.95-2.652-8.001-5.759-9.162-9.317-.403-1.423-.603-2.952-.603-4.581h0V6.287C8.94 4.496 12.47 3.6 16.112 3.6zm-.072 6.424h-.061c-.069 0-.11.028-.124.083h0l-.862 2.65c-.07.178-.137.295-.206.35-.069.054-.192.082-.37.082h0-2.774c-.068 0-.116.027-.143.082a.152.152 0 00.061.164h0l2.24 1.644c.137.096.22.185.246.267.041.096.028.226-.04.39h0l-.864 2.65c-.013.07.007.124.062.165.055.041.11.041.164 0h0l2.26-1.644c.151-.095.268-.143.35-.143h.061c.096 0 .212.048.35.143h0l2.28 1.644c.041.041.096.041.165 0 .054-.04.068-.096.04-.164h0l-.862-2.65c-.055-.165-.069-.295-.041-.391.027-.082.11-.171.246-.267h0l2.26-1.644c.055-.041.069-.096.042-.164-.028-.055-.069-.082-.124-.082h0-2.773c-.178 0-.309-.028-.39-.083-.07-.054-.13-.17-.186-.349h0l-.863-2.65c-.027-.055-.075-.083-.144-.083h0z"/></svg>