<svg xmlns="http://www.w3.org/2000/svg" width="32" height="32"><g fill="none" fill-rule="evenodd"><path fill="#FFF" d="M13.283 24.517c-.844 0-1.266-.428-1.266-1.284V13.9h8v9.333c0 .856-.423 1.284-1.267 1.284h-5.467z"/><path stroke="#FFF" stroke-linecap="round" stroke-linejoin="round" stroke-width="1.2" d="M12.683 6.617v.566h-1.25c-1.389 0-2.083.695-2.083 2.084v15.766c0 1.423.694 2.134 2.083 2.134h9.15c1.39 0 2.084-.711 2.084-2.134V9.267c0-1.39-.695-2.084-2.084-2.084h-1.25v-.566c0-1.411-.693-2.117-2.083-2.117h-2.483c-1.39 0-2.084.706-2.084 2.117z"/></g></svg>