<svg xmlns="http://www.w3.org/2000/svg" width="32" height="32"><g fill="none" fill-rule="evenodd" stroke="#FFF" stroke-linecap="round" stroke-linejoin="round" stroke-width="1.2"><path d="M14.965 14.219l-2.46 2.46c-.311.324-.48.702-.507 1.131.027.417.183.774.47 1.074.324.3.702.462 1.131.488a1.618 1.618 0 001.074-.488l.156-.156m2.362-4.04l-2.46-2.46c-.299-.325-.657-.488-1.073-.488-.43 0-.794.15-1.093.449-.312.325-.482.696-.508 1.112.026.43.196.8.508 1.113l.156.156m1.796 1.894l2.459 2.42c.286.325.644.495 1.073.507.43-.012.794-.169 1.093-.468.313-.325.482-.696.508-1.113a1.596 1.596 0 00-.508-1.093l-.155-.156m-2.284.332l2.459-2.479c.326-.286.488-.644.488-1.074 0-.429-.15-.793-.449-1.093a1.726 1.726 0 00-1.113-.507 1.67 1.67 0 00-1.112.507l-.156.157"/><path d="M26.445 14.054V6.287C23.025 4.496 19.58 3.6 16.112 3.6c-3.641 0-7.172.896-10.592 2.687v7.767c0 1.63.2 3.158.603 4.581 1.16 3.558 4.212 6.665 9.162 9.317.207.114.44.172.706.172.265 0 .5-.058.706-.172 4.95-2.652 8.002-5.759 9.162-9.317.39-1.423.586-2.952.586-4.581z"/></g></svg>