<svg xmlns="http://www.w3.org/2000/svg" width="32" height="32"><path fill="none" stroke="#FFF" stroke-linecap="round" stroke-linejoin="round" stroke-width="1.2" d="M15.973 17.304a1.774 1.774 0 100-3.547 1.774 1.774 0 000 3.547zm0 0v2.217m-7.195-6.388c.006-.384.031-.764.072-1.138l.004-.034.007-.049a11.9 11.9 0 01.787-3.097 12.073 12.073 0 013.011-4.352l-.045.012-.122.039c-4.855 1.504-8.413 5.984-8.49 11.33a12.012 12.012 0 003.688 8.838c.24.073.484.139.73.198.842.195 1.718.304 2.618.31.716.007 1.417-.05 2.099-.165.94-.159 1.85-.412 2.698-.786l.048-.023c.01-.003.018-.008.027-.012l.028-.013c-4.224-1.967-7.231-6.143-7.16-11.058zm10.657-8.625a12.028 12.028 0 00-6.775-.045 11.988 11.988 0 00-3.799 7.449l-.007.049a11.99 11.99 0 017.216-2.33c2.634.022 5.062.889 7.032 2.338l.078.06a12.098 12.098 0 012.6 2.663 11.924 11.924 0 011.884 4.118c.21-.87.328-1.778.336-2.712.044-5.46-3.575-10.095-8.565-11.59zm6.345 10.184c-.08-.11-.16-.221-.243-.33a12.137 12.137 0 00-2.357-2.333l-.078-.06c.044.434.066.874.063 1.32-.04 4.889-3.061 9.02-7.227 10.902l-.028.013-.027.012-.048.023c-.849.374-1.758.627-2.698.786a12.007 12.007 0 01-5.464-.342 12.001 12.001 0 008.2 3.317 12 12 0 008.313-3.239 11.968 11.968 0 003.478-5.95 11.92 11.92 0 00-1.884-4.119z"/></svg>