<svg xmlns="http://www.w3.org/2000/svg" width="28" height="28"><path fill="#FF7800" fill-rule="evenodd" d="M19.18 3.19h-.01c.706.34 1.383.76 2.03 1.26h.01c.42.333.83.697 1.23 1.09.16.153.24.34.24.56 0 .22-.077.41-.23.57a.747.747 0 01-.56.24.795.795 0 01-.57-.23c-.36-.353-.727-.677-1.1-.97l.01.01c-.56-.427-1.147-.79-1.76-1.09-1.4-.687-2.944-1.03-4.63-1.03-.82 0-1.607.08-2.36.24a9.527 9.527 0 00-2.3.81h-.01c-1.007.5-1.94 1.176-2.8 2.03a.796.796 0 01-.57.23.762.762 0 01-.56-.23.779.779 0 01-.24-.57c0-.22.08-.41.24-.57.987-.98 2.06-1.753 3.22-2.32l.01-.01c.846-.42 1.736-.73 2.67-.93a12.7 12.7 0 012.7-.28c1.94 0 3.72.397 5.34 1.19zm-.85 5.42l-.01-.01c-1.274-1.027-2.757-1.54-4.45-1.54-.82 0-1.59.116-2.31.35a6.98 6.98 0 00-2.23 1.23l-.01.01a5.59 5.59 0 00-.52.46.78.78 0 01-.57.22.798.798 0 01-.56-.24.744.744 0 01-.23-.57.782.782 0 01.25-.56c.2-.2.41-.387.63-.56a8.26 8.26 0 012.74-1.51h.01a8.92 8.92 0 012.8-.43c2.08 0 3.9.633 5.46 1.9l-.01-.01c.233.187.463.393.69.62.153.153.23.34.23.56 0 .22-.077.41-.23.57a.796.796 0 01-.57.23.762.762 0 01-.56-.23 6.16 6.16 0 00-.55-.49zm-4.48 2.07c-.774 0-1.447.24-2.02.72a.064.064 0 00-.03.03.89.89 0 00-.17.15c-.62.613-.93 1.343-.93 2.19v1.75h6.29v-1.75c0-.847-.307-1.577-.92-2.19-.6-.6-1.34-.9-2.22-.9zm-3.35-.23c.1-.107.207-.204.32-.29l-.02.02c.86-.734 1.877-1.1 3.05-1.1 1.32 0 2.437.456 3.35 1.37.926.926 1.39 2.033 1.39 3.32v1.75h.78c1.193 0 1.79.593 1.79 1.78v6.92c0 1.186-.597 1.78-1.79 1.78H8.3c-1.186 0-1.78-.594-1.78-1.78V17.3c0-1.187.594-1.78 1.78-1.78h.8v-1.75c0-1.287.467-2.394 1.4-3.32zm-2.2 6.67c-.12 0-.18.06-.18.18v6.92c0 .12.06.18.18.18h11.07c.126 0 .19-.06.19-.18V17.3c0-.12-.064-.18-.19-.18H8.3zm4.84 4.72v-2.15c0-.194.07-.357.21-.49a.65.65 0 01.49-.21c.193 0 .36.07.5.21.133.132.2.296.2.49v2.15a.7.7 0 01-.2.5.701.701 0 01-.5.2.668.668 0 01-.49-.2.683.683 0 01-.21-.5z"/></svg>