<svg xmlns="http://www.w3.org/2000/svg" width="16" height="16"><path d="M12.45 10.727c.853 0 1.55.737 1.55 1.637l-.006.148c-.072.831-.739 1.488-1.544 1.488h-8.9C2.697 14 2 13.264 2 12.364l.006-.149c.072-.83.739-1.488 1.544-1.488zm-.086 1.091a.545.545 0 10-.001 1.09.545.545 0 00.001-1.09zm.086-5.454C13.303 6.364 14 7.1 14 8c0 .9-.697 1.636-1.55 1.636h-8.9C2.697 9.636 2 8.9 2 8c0-.9.697-1.636 1.55-1.636zm-.086 1.09a.546.546 0 100 1.09.546.546 0 000-1.089zM12.45 2c.853 0 1.55.736 1.55 1.636l-.006.149c-.072.83-.739 1.488-1.544 1.488h-8.9C2.697 5.273 2 4.536 2 3.636l.006-.148C2.078 2.657 2.745 2 3.55 2zm-.086 1.09a.546.546 0 100 1.09.546.546 0 000-1.089z" fill="#A8A4C2" fill-rule="evenodd"/></svg>