<svg xmlns="http://www.w3.org/2000/svg" width="24" height="24"><path fill="#4E22D0" fill-rule="evenodd" d="M20.652 10.799l-4.533 3.441 1.746 5.598c.027.087.042.18.042.276 0 .489-.379.886-.845.886a.812.812 0 01-.493-.167L12 17.365l-4.568 3.468a.82.82 0 01-.494.167c-.467 0-.845-.396-.845-.886 0-.097.015-.189.043-.276l1.747-5.598-4.534-3.44v-.001A.898.898 0 013 10.082c0-.489.377-.885.844-.885h5.612l1.737-5.572A.85.85 0 0112.001 3a.85.85 0 01.807.625l1.737 5.572h5.611c.466 0 .844.396.844.885a.897.897 0 01-.348.717"/></svg>