<svg width="16" height="16" xmlns="http://www.w3.org/2000/svg"><path d="M2.104 9.566c-.435-1.633-.232-3.174.61-4.625m2.227 8.325a20.12 20.12 0 00-.23-.137c-1.318-.834-2.183-2.011-2.597-3.531a.083.083 0 00-.01-.032l-.473.126m5.013.657l-.01-.005a2.63 2.63 0 01-1.293-1.66 2.567 2.567 0 01.294-2.071m4.72 2.743c-.372.645-.926 1.065-1.661 1.261a2.588 2.588 0 01-2.05-.268l-1.703 2.917c1.465.84 3.006 1.044 4.625.61m-.2-8.246c.646.37 1.066.919 1.262 1.645a2.646 2.646 0 01-.274 2.08l2.922 1.683M6.413 2.104c-1.619.434-2.852 1.38-3.7 2.837l2.922 1.672a2.608 2.608 0 011.65-1.272 2.585 2.585 0 012.07.284l.011.005 1.682-2.917M1 9.86l.6-.157m4.666-8.135l.01.031.137.505a1.02 1.02 0 00.073-.021c1.528-.393 2.971-.225 4.33.504l.232.126c1.454.832 2.4 2.062 2.838 3.69m.573-.158L15 6.098M6.119 1l.147.568m8.193 4.677l-.037.01-.536.147v.01c.434 1.626.231 3.168-.61 4.626-.84 1.457-2.077 2.403-3.71 2.837l.152.552.153.562" stroke="#261C6A" stroke-width="1.2" fill="none" stroke-linecap="round" stroke-linejoin="round"/></svg>