<svg width="16" height="16" xmlns="http://www.w3.org/2000/svg"><path d="M12.172 14c.5 0 .93-.18 1.289-.54.36-.358.539-.788.539-1.288v-.586c0-.547-.148-1.055-.445-1.524a2.697 2.697 0 00-1.64-1.242l-.493-.14a4.1 4.1 0 00.797-2.461 4.16 4.16 0 00-.563-2.121 4.135 4.135 0 00-1.535-1.535A4.163 4.163 0 008 2a4.16 4.16 0 00-2.121.563 4.135 4.135 0 00-1.535 1.535 4.163 4.163 0 00-.563 2.12 4.1 4.1 0 00.797 2.462l-.492.14c-.719.203-1.266.61-1.64 1.22A2.91 2.91 0 002 11.585v.586c0 .5.18.93.54 1.289.358.36.788.539 1.288.539h8.344zM8 9.312a2.95 2.95 0 01-1.547-.421 3.232 3.232 0 01-1.125-1.125 2.95 2.95 0 01-.422-1.547c0-.563.14-1.078.422-1.547a3.232 3.232 0 011.125-1.125A2.95 2.95 0 018 3.125c.563 0 1.078.14 1.547.422.469.281.844.656 1.125 1.125s.422.984.422 1.547a2.95 2.95 0 01-.422 1.547A3.232 3.232 0 019.547 8.89 2.95 2.95 0 018 9.312zm4.172 3.563H3.828a.683.683 0 01-.703-.703v-.586c0-.39.117-.742.352-1.055.234-.312.539-.523.914-.633l1.078-.304c.75.562 1.593.844 2.531.844.938 0 1.781-.282 2.531-.844l1.078.304c.375.11.68.32.914.633.235.313.352.664.352 1.055v.586a.683.683 0 01-.703.703z" fill="#605992"/></svg>